<svg xmlns="http://www.w3.org/2000/svg" width="64" height="144" fill="none" xmlns:v="https://vecta.io/nano"><path d="M60.65 102.524c-.629.828-1.329 1.576-2.089 2.234-1.984 1.733-4.232 3.001-6.621 3.734-6.547 2.044-9.537-.485-10.403-1.466a3.2 3.2 0 0 1-.078.155c-.027.05-.053.107-.081.161a71.4 71.4 0 0 1-6.34 10.145l-.457.603-.547.719c1.568-1.437 4.855-4.183 8.028-5.121 6.865-2.031 9.592 2.088 10.007 2.814-.484.625-3.349 4.077-8.871 5.668-5.945 1.712-9.094-1.474-9.884-2.439-.033.045-.069.09-.105.133s-.07.09-.105.133c-2.093 2.631-4.217 5.014-6.198 7.125l-.323.342-.349.368c1.255-.636 5.195-2.464 8.931-2.431 2.223.019 5.249.463 7.051 2.474.886.989 1.127 1.977 1.185 2.299-.499.375-3.394 2.336-9.046 2.248-6.123-.097-7.956-3.4-8.355-4.344l-.119.126-.12.126-.32.332c-2.334 2.382-4.849 4.503-7.513 6.338l-.448.31c-.168.119-.335.233-.502.339 1.796-.562 5.904-1.666 9.299-1.195 6.407.888 7.573 5.24 7.73 6.018-.534.338-3.429 1.943-8.919 1.23-5.951-.773-8.189-4.428-8.766-5.614l-.136.086-.134.088c-5.274 3.414-10.733 5.921-15.008 7.727-.016.007-.033.011-.05.011-.031 0-.061-.011-.087-.031s-.045-.05-.056-.084l-.84-2.629c-.007-.022-.011-.046-.01-.07s.005-.048.014-.07.021-.041.036-.057.033-.029.052-.037c6.064-2.557 11.114-5.24 15.377-8.187l.145-.101.145-.1c-.927-.857-2.707-3.111-3.112-8.031-.397-4.816 1.229-9.113 1.523-9.841.754.131 1.457.528 2.016 1.14 1.37 1.464 2.078 4.118 2.026 7.676-.042 2.914-.584 5.787-1.593 8.447l.236-.18.219-.164c2.201-1.623 4.288-3.451 6.242-5.466l.673-.707.126-.132.123-.132c-.595-.333-1.127-.803-1.565-1.383-.869-1.106-2.007-3.235-2.491-7.077-.598-4.751.982-8.973 1.287-9.727.787.224 1.521.659 2.144 1.27 1.486 1.438 2.317 3.783 2.403 6.771.152 5.429-1.015 8.723-1.513 9.866l.305-.329.289-.313c2.419-2.607 4.715-5.37 6.877-8.275.035-.045.069-.092.101-.136s.069-.09.1-.137l-.674-.589c-1.746-1.519-3.727-3.235-4.765-5.613-1.407-3.213-1.481-5.434-1.567-8.005l-.096-2.157c2.284.791 4.624 1.688 6.306 7.188.539 1.76.543 3 .548 4.437-.026 1.544.094 3.086.358 4.599.043-.058.085-.115.126-.18s.085-.115.125-.18c1.767-2.429 3.4-4.989 4.89-7.664l.084-.153c.028-.052.056-.1.084-.152-.326-.18-.661-.337-1.008-.505-1.911-.931-3.885-1.895-5.458-4.836-1.481-2.773-1.705-3.616-2.37-6.11l-1.151-4.133c2.36.264 4.8.629 7.331 5.634.843 1.632 1.148 3.151 1.516 4.906.31 1.646.735 3.258 1.271 4.82l.099-.18.1-.179a61.23 61.23 0 0 0 3.989-9.146l.058-.169c.02-.056.036-.113.056-.169-.435-.117-.894-.21-1.37-.307-2.177-.444-4.645-.947-7.081-3.968-2.943-3.65-4.086-7.228-4.898-10.319l.521.049c2.375.216 5.633.51 8.253 4.559 1.487 2.298 2.061 3.689 2.727 5.299.592 1.473 1.253 2.907 1.979 4.293l.069-.216.069-.212c.271-.859.521-1.72.749-2.582.554-2.099.993-4.238 1.315-6.403l.026-.18c.008-.061.018-.12.026-.18-1.714-.045-5.388-.246-8.69-3.783-3.132-3.357-4.73-7.217-5.767-10.261.254 0 .518-.011.795-.018 2.392-.076 5.365-.169 8.55 4.027 2.17 2.859 3.232 5.105 4.357 7.485l.859 1.797a8.89 8.89 0 0 0 .037-.284c.014-.095.024-.191.037-.286.452-3.734.582-7.513.388-11.278 0-.059 0-.12-.011-.18s0-.119-.009-.18c-1.5.047-5.805.138-9.662-3.145-3.532-3.01-5.319-6.983-6.502-9.614l-.034-.072c.265-.038.54-.085.828-.131 2.297-.386 5.443-.917 8.983 2.816 2.209 2.324 3.483 4.672 4.72 6.931.542.997 1.066 1.95 1.649 2.893 0-.113-.014-.228-.021-.341L44.9 73.1c-.092-1.301-.223-2.601-.393-3.9-.402-2.947-.982-5.856-1.736-8.705l-.044-.18-.046-.18c-1.532.343-4.793.875-8.983-.917-3.022-1.292-5.657-4.214-7.835-8.692 2.342-.812 5.024-1.671 9.966 1.292 3.01 1.797 5.132 4.541 6.329 6.399-.049-.18-.099-.359-.152-.528l-.142-.483c-.875-2.987-1.85-5.871-2.794-8.577l-.059-.169-.059-.167c-1.465.465-4.729 1.333-9.109-.129-3.094-1.033-5.898-3.727-8.34-8.008 2.18-.96 4.91-2.088 10.018.447 3.219 1.598 5.551 4.272 6.833 6.026l-.216-.566-.195-.503c-1.343-3.414-2.923-6.597-5.103-10.299l-.088-.149-.088-.149c-1.014.58-3.068 1.664-7.694 1.161-5.432-.591-8.09-4.313-8.606-5.123 1.891-1.288 3.866-2.239 8.159-1.351 2.742.582 5.305 2.008 7.431 4.133l-.359-.588c-.097-.162-.196-.322-.304-.482-1.659-2.686-3.352-5.267-5.079-7.742a4.62 4.62 0 0 0-.099-.144l-.102-.145c-1.16.571-3.739 1.644-8.421 1.134-5.446-.591-8.622-4.511-9.247-5.357 1.462-.954 4.51-2.264 9.383-1.258 3.263.677 5.727 2.534 7.177 3.912l-.492-.681-.397-.539a135.32 135.32 0 0 0-3.261-4.266c-.655-.823-1.37-1.617-2.107-2.397l-.172-.18-.178-.18c-1.868 0-6.606-.21-9.205-1.991-3.704-2.539-7.156-7.846-7.602-9.495 1.877-.78 3.897-.955 5.85-.507s3.771 1.504 5.264 3.057c2.783 2.821 4.567 5.607 5.539 7.415l.368.374.359.374c.744.782 1.427 1.555 2.049 2.318l2.25 2.832c-1.018-1.869-2.194-4.564-2.666-7.673-.749-4.94 0-10.11.703-11.573.839.736 1.577 1.621 2.186 2.624 1.066 1.722 2.386 4.69 2.556 9.05.152 3.979-.207 7.271-1.078 9.801 2.06 2.74 4.044 5.556 5.903 8.376.152.221.292.444.435.665v.011l.51.78c-.929-2.092-2.192-5.402-2.68-8.805-.716-4.996.881-10.54 1.387-11.501.875.589 1.635 1.389 2.23 2.349 1.918 2.972 2.259 6.813 2.209 9.512-.054 3.52-.761 6.983-2.074 10.144l.102.162c.032.054.066.106.097.158.152.239.304.476.443.719 1.344 2.187 3.034 5.211 4.59 8.301l.295.593.338.688c-.562-2.093-1.309-5.65-1.149-9.3.33-7.494 4.315-10.795 4.905-11.237.571.692 4.091 5.432 1.775 14.667-1.218 4.868-3.806 6.867-4.771 7.463l.073.162.073.158c.557 1.213 1.066 2.397 1.5 3.506.872 2.237 1.622 4.239 2.284 6.22l.203.613.227.703c-.241-2.255-.414-5.303-.096-8.25.846-7.85 5.68-10.002 6.507-10.308.257 1.193 1.653 8.43-.859 14.624-2.026 4.998-3.771 6.577-4.631 7.073l.049.18.046.18c.498 1.871.953 3.865 1.396 6.137a65.26 65.26 0 0 1 .516 3.021l.105.742.114.898c.099-2.6.413-6.563 1.381-9.855.631-2.184 1.713-4.148 3.148-5.714s3.179-2.685 5.073-3.256c.122 1.238.647 8.518-2.549 14.229-2.937 5.251-5.712 6.689-6.787 7.071 0 .059.011.119.015.18l.015.18a73.19 73.19 0 0 1 0 11.726l-.046.552-.046.494c.507-1.078.886-2.492 1.302-4.043.641-2.386 1.37-5.093 2.783-7.519 1.543-2.65 3.818-4.587 6.435-5.477 1.085-.381 2.209-.583 3.34-.6.143 0 .256 0 .336.011-.134 1.22-1.108 8.522-5.481 13.038-3.777 3.894-7.251 5.095-8.804 5.454 0 .063-.012.128-.02.191l-.02.18a76.09 76.09 0 0 1-1.089 6.94l-.073.345c-.029.144-.061.286-.093.426l-.108.471c1.165-1.844 4.336-6.403 8.564-8.806 4.781-2.724 8.342-.843 8.992-.447-.469.936-3.129 5.95-7.588 8.446-5.481 3.082-9.048 2.009-10.146 1.526l-.044.18-.046.18a50.38 50.38 0 0 1-2.922 8.148l-.201.433-.225.48c1.393-1.486 4.56-4.504 8.466-5.921 6.183-2.238 9.424 1.426 10.163 2.409zm-27.43 17.072h-.009.009z" fill="#fff" fill-opacity=".12"/></svg>