<?xml version="1.0" encoding="utf-8"?>
<!-- Generator: Adobe Illustrator 26.0.2, SVG Export Plug-In . SVG Version: 6.00 Build 0)  -->
<svg version="1.1" id="Layer_1" xmlns:v="https://vecta.io/nano"
	 xmlns="http://www.w3.org/2000/svg" xmlns:xlink="http://www.w3.org/1999/xlink" x="0px" y="0px" viewBox="0 0 196 120"
	 style="enable-background:new 0 0 196 120;" xml:space="preserve">
<style type="text/css">
	.st0{clip-path:url(#SVGID_00000042001980883776856300000000970544532684150405_);}
	.st1{fill-rule:evenodd;clip-rule:evenodd;fill:#FFFFFF;}
	.st2{fill:#FFFFFF;}
	.st3{fill:#DD0330;}
	.st4{fill-rule:evenodd;clip-rule:evenodd;fill:#DD0330;}
</style>
<g>
	<defs>
		<rect id="SVGID_1_" x="27" y="34.6" width="142" height="50.7"/>
	</defs>
	<clipPath id="SVGID_00000178163865908554052270000001858196493905438373_">
		<use xlink:href="#SVGID_1_"  style="overflow:visible;"/>
	</clipPath>
	<g style="clip-path:url(#SVGID_00000178163865908554052270000001858196493905438373_);">
		<path class="st1" d="M68.6,69V52.1h2.3l10.7,13.6V52.1h2.1V69h-2.2L70.7,55.3V69L68.6,69L68.6,69z M101.1,68.3
			c-1.4,0.5-2.9,0.8-4.6,0.8c-6.3,0-9.5-2.9-9.5-8.8c0-5.6,3.1-8.3,9.2-8.3c1.8,0,3.4,0.2,4.9,0.7v1.9c-1.5-0.6-3.1-0.8-4.6-0.8
			c-4.8,0-7.2,2.2-7.2,6.5c0,4.7,2.4,7,7.1,7c0.8,0,1.6-0.1,2.5-0.3v-5.7h2.3V68.3L101.1,68.3L101.1,68.3z M104.7,62.5V52.1h2.3
			v10.4c0,3.2,1.7,4.9,5,4.9c3.3,0,5-1.6,5-4.9V52.1h2.2v10.4c0,4.4-2.4,6.7-7.3,6.7S104.7,66.9,104.7,62.5
			C104.7,62.5,104.7,62.5,104.7,62.5z M125.5,52.1v15.1h9.2V69h-11.4V52.1L125.5,52.1C125.5,52.1,125.5,52.1,125.5,52.1z M138,69
			h-2.4l8.7-19.1L153,69h-2.5l-2.2-5.3h-5.8l0.6-1.8h4.4l-3.3-7.6L138,69L138,69L138,69z M155.4,69V52.1h7.5c3.3,0,5,1.3,5,4.1
			c0,2.2-1.6,3.8-4.9,4.9l6,8h-3l-5.6-7.6V60c3.3-0.5,5-1.7,5-3.7c0-1.6-0.9-2.3-2.8-2.3h-5V69H155.4L155.4,69L155.4,69z"/>
		<path class="st2" d="M55.6,70.8h-22c-1.3,0-2.3-1-2.3-2.3V47.4c0-1.3,1-2.3,2.3-2.3h22c1.3,0,2.3,1,2.3,2.3v21.2
			C57.9,69.8,56.8,70.8,55.6,70.8z"/>
		<g>
			<path class="st3" d="M48.9,61.1l-3.8-7.9l-3.3,7.9H48.9z"/>
			<path class="st4" d="M45,40.7l-18,6.4l2.8,23.7L45,79.3l15.5-8.5l3-23.7L45,40.7z M33.8,70.1L45,45.2l11.7,24.9l-4-0.1l-2.5-5.7
				h-10L38,70L33.8,70.1L33.8,70.1z"/>
		</g>
	</g>
</g>
</svg>
