<svg xmlns="http://www.w3.org/2000/svg" width="196" height="120" fill="none" xmlns:v="https://vecta.io/nano"><g clip-path="url(#A)"><path fill-rule="evenodd" d="M68.586 68.994V52.086h2.251l10.697 13.607V52.086h2.139v16.908h-2.25L70.725 55.252v13.741h-2.139zm32.508-.671c-1.417.51-2.945.778-4.557.778-6.335 0-9.502-2.925-9.502-8.803 0-5.556 3.056-8.347 9.169-8.347 1.75 0 3.39.241 4.89.698v1.879c-1.5-.564-3.056-.832-4.64-.832-4.779 0-7.169 2.201-7.169 6.549 0 4.697 2.362 7.032 7.057 7.032.75 0 1.584-.107 2.501-.295v-5.663h2.251v7.005h0zm3.612-5.851V52.086h2.251v10.386c0 3.248 1.667 4.885 5.029 4.885 3.334 0 5.029-1.637 5.029-4.885V52.086h2.25v10.386c0 4.428-2.417 6.656-7.279 6.656s-7.28-2.228-7.28-6.656h0zm20.839-10.386v15.137h9.169v1.771h-11.42V52.086h2.251 0zm12.419 16.908h-2.361l8.696-19.136 8.697 19.136h-2.501l-2.25-5.314h-5.78l.612-1.771h4.418l-3.279-7.649-6.252 14.734h0zm17.449 0V52.086h7.474c3.335 0 5.002 1.342 5.002 4.052 0 2.201-1.64 3.838-4.891 4.885L169 68.994h-2.973l-5.557-7.595v-1.422c3.334-.51 5.029-1.745 5.029-3.731 0-1.557-.917-2.335-2.778-2.335h-5.002v15.083h-2.306 0z" fill="#0b0f19"/><g fill="#dd0330"><path d="M48.875 61.112l-3.799-7.897-3.325 7.897h7.124z"/><path fill-rule="evenodd" d="M45.02 40.73L27 47.126l2.766 23.719L45.02 79.27l15.505-8.537 2.989-23.719L45.02 40.73zM33.816 70.094l11.231-24.859 11.706 24.914-3.995-.083-2.459-5.673H40.27l-2.263 5.617-4.191.083z"/></g></g><defs><clipPath id="A"><path fill="#fff" transform="translate(27 34.645)" d="M0 0h142v50.71H0z"/></clipPath></defs></svg>