<svg width="196" height="120" viewBox="0 0 196 120" fill="none" xmlns="http://www.w3.org/2000/svg">
<g clip-path="url(#clip0_14_23729)">
<path fill-rule="evenodd" clip-rule="evenodd" d="M68.5857 68.9935V52.0855H70.8363L81.5334 65.6924V52.0855H83.6728V68.9935H81.4223L70.7251 55.2524V68.9935H68.5857ZM101.094 68.3226C99.6769 68.8325 98.1487 69.1009 96.5372 69.1009C90.2023 69.1009 87.0348 66.1755 87.0348 60.298C87.0348 54.7425 90.0911 51.9513 96.2038 51.9513C97.9542 51.9513 99.5935 52.1928 101.094 52.6491V54.5278C99.5935 53.9641 98.0376 53.6958 96.4539 53.6958C91.6749 53.6958 89.2854 55.8965 89.2854 60.2443C89.2854 64.941 91.6471 67.2759 96.3427 67.2759C97.0929 67.2759 97.9264 67.1685 98.8433 66.9807V61.3178H101.094V68.3226V68.3226ZM104.706 62.4718V52.0855H106.957V62.4718C106.957 65.7193 108.624 67.3564 111.986 67.3564C115.32 67.3564 117.015 65.7193 117.015 62.4718V52.0855H119.265V62.4718C119.265 66.9001 116.848 69.1277 111.986 69.1277C107.123 69.1277 104.706 66.9001 104.706 62.4718V62.4718ZM125.545 52.0855V67.2222H134.714V68.9935H123.294V52.0855H125.545V52.0855ZM137.964 68.9935H135.603L144.299 49.8579L152.996 68.9935H150.495L148.245 63.6796H142.465L143.077 61.9082H147.495L144.216 54.2594L137.964 68.9935V68.9935ZM155.413 68.9935V52.0855H162.887C166.222 52.0855 167.889 53.4274 167.889 56.138C167.889 58.3388 166.249 59.9759 162.998 61.0226L169 68.9935H166.027L160.47 61.3983V59.9759C163.804 59.466 165.499 58.2314 165.499 56.2454C165.499 54.6888 164.582 53.9105 162.721 53.9105H157.719V68.9935H155.413V68.9935Z" fill="#B4B7C9"/>
<path d="M48.8747 61.1121L45.0752 53.2151L41.7506 61.1121H48.8747Z" fill="#B4B7C9"/>
<path fill-rule="evenodd" clip-rule="evenodd" d="M45.0197 40.7302L27 47.1257L29.7658 70.8445L45.0197 79.2698L60.525 70.7333L63.5143 47.0145L45.0197 40.7302ZM33.8164 70.0935L45.0472 45.2347L56.753 70.1491L52.758 70.0657L50.2995 64.3932H40.2699L38.007 70.0101L33.8164 70.0935Z" fill="#B4B7C9"/>
</g>
<defs>
<clipPath id="clip0_14_23729">
<rect width="142" height="50.71" fill="white" transform="translate(27 34.645)"/>
</clipPath>
</defs>
</svg>
