<svg xmlns="http://www.w3.org/2000/svg" width="196" height="120" fill="none" xmlns:v="https://vecta.io/nano"><path d="M45.156 49.03c-.713-.396-2.755-.151-5.209.609-4.294 2.938-7.917 7.267-8.17 14.219-.046.166-.469-.023-.553-.074-1.159-2.225-1.619-4.568-.651-7.948.181-.301-.41-.671-.515-.565-.213.213-1.098 1.158-1.687 2.18-2.917 5.065-1.01 11.555 4.093 14.396a10.57 10.57 0 0 0 14.383-4.099c3.286-5.897.235-17.64-1.692-18.717h0z" fill="#82b541"/><path d="M63.812 51.444c-6.049 0-10.44 4.59-10.44 10.913 0 6.375 4.38 10.828 10.651 10.828 3.168 0 5.676-1.011 7.67-3.092.596-.656.66-1.289.66-1.531a1.72 1.72 0 0 0-1.786-1.78c-.522 0-.958.201-1.459.673-1.129 1.074-2.617 2.171-5.085 2.171-3.433 0-6.225-2.63-6.4-6.008h13.663c1.486 0 2.208-.709 2.208-2.166 0-.43 0-.739-.085-1.35-.736-5.422-4.323-8.658-9.596-8.658v-.001h0zm0 3.385c3.281 0 5.385 2.133 5.515 5.577H57.626c.307-3.187 2.947-5.577 6.185-5.577zm22.727-3.385c-2.748 0-5.469 1.613-6.532 3.852v-1.384c0-2.144-1.628-2.253-1.954-2.253-.965 0-1.996.592-1.996 2.253V70.63c0 2.227 1.733 2.339 2.081 2.339s2.081-.112 2.081-2.339v-8.962c0-3.899 2.165-6.623 5.265-6.623 3.002 0 4.463 2.011 4.463 6.148v9.436c0 2.227 1.734 2.339 2.081 2.339s2.081-.112 2.081-2.339V59.86c0-4.068-1.989-8.414-7.569-8.414v-.001h0zm26.401.216c-.962 0-1.659.573-2.074 1.699l-5.695 14.613-5.651-14.613c-.443-1.143-1.135-1.699-2.117-1.699-1.148 0-2.082.914-2.082 2.037 0 .278.031.639.261 1.201l6.544 15.769c.78 1.902 2.063 2.302 3.002 2.302s2.222-.399 3.003-2.3l6.587-15.857c.225-.556.26-.964.26-1.158 0-1.137-.878-1.994-2.039-1.994h0zm12.098-.216c-2.662 0-5.141.757-6.98 2.129-.624.439-.927.987-.927 1.676 0 .948.709 1.692 1.617 1.692.392 0 .832-.159 1.235-.448 1.581-1.075 3.067-1.577 4.675-1.577 3.077 0 4.844 1.597 4.844 4.382v.461c-6.908.008-13.934.859-13.934 6.992 0 4.414 3.696 6.39 7.359 6.39 2.917 0 5.247-1.18 6.742-3.413v1.074c0 1.599 1.052 2.166 1.955 2.166.19 0 1.869-.061 1.869-2.166V59.556c0-5.08-3.161-8.113-8.455-8.113v.001h0zm3.588 11.443h.876v.979c0 3.579-2.233 5.891-5.688 5.891-.938 0-3.998-.223-3.998-3.091 0-3.387 5.028-3.778 8.81-3.778h0zm15.708-7.367c1.821 0 1.913-1.446 1.913-1.736 0-.86-.503-1.779-1.913-1.779h-3.744v-3.865c0-1.727-1.098-2.339-2.039-2.339-.347 0-2.081.113-2.081 2.339v18.355c0 4.236 2.048 6.475 5.922 6.475 1.003 0 1.98-.181 2.618-.485.733-.373 1.152-.986 1.152-1.682 0-.981-.697-1.693-1.659-1.693-.186 0-.45.047-.741.132-.357.091-.598.126-.862.126-1.577 0-2.31-1.05-2.31-3.305V55.518h3.744v.002h0zm13.761-4.075c-6.295 0-10.862 4.554-10.862 10.826 0 3.054 1.107 5.838 3.115 7.838 1.993 1.984 4.744 3.076 7.748 3.076 6.216 0 10.904-4.692 10.904-10.914 0-6.273-4.587-10.826-10.904-10.826h-.001 0zm0 18.139c-4.317 0-6.574-3.679-6.574-7.313 0-4.994 3.408-7.268 6.574-7.268s6.574 2.274 6.574 7.268c0 5.025-3.407 7.313-6.574 7.313z" fill="#0b0f19"/></svg>