<svg xmlns="http://www.w3.org/2000/svg" xmlns:xlink="http://www.w3.org/1999/xlink" viewBox="0 0 196 120" xmlns:v="https://vecta.io/nano"><path d="M83.7 52.1h12.8v3.6h-9.1v4.9h9.1v3.6h-9.1V72h-3.7V52.1zm17.1-1.4c1.1 0 2 .8 2.2 2v.2c0 1.3-.9 2.2-2.2 2.2-1.2 0-2.2-.9-2.2-2.2 0-1.2.8-2.2 2-2.2h.2zm-1.7 6.5h3.6v14.6h-3.6V57.2zm14.1 4c-.5-.4-1.1-.6-1.7-.6-1.4 0-2.4.9-2.4 3.1v8.1h-3.6V57.2h3.5v2.1c.5-1.5 1.9-2.3 3.4-2.2a4.75 4.75 0 0 1 2.5.7l-1.7 3.4zm1.4 3.4c-.1-4.1 3.1-7.6 7.1-7.7h.2c4.2 0 7.3 3.1 7.3 7.4v1.6h-11c.4 1.8 1.7 3.1 3.9 3.1 1.4 0 2.9-.8 3.5-2.1l3 1.9c-1.4 2.1-3.6 3.4-6.6 3.4-4.6-.1-7.4-3.3-7.4-7.6zm3.6-1.7h7.5c-.4-1.9-1.8-2.8-3.8-2.8a3.55 3.55 0 0 0-3.7 2.8zm11.9-5.7h2.6v-.7c0-4 1.6-5.6 5.2-5.6h1.2v3.2h-1c-1.6 0-2.1.6-2.1 2.4v.7h3.1v3.4h-3v11.2h-3.5V60.5H130v-3.3zm9.6 7.3c-.1-4.1 3.2-7.5 7.2-7.6h.3c4.1 0 7.4 3.4 7.4 7.6s-3.3 7.6-7.4 7.6c-3.9.1-7.3-3.1-7.4-7.1-.1-.2-.1-.4-.1-.5zm11.4 0c.1-2.2-1.6-4-3.8-4.1s-3.9 1.7-4 3.9v.3c-.1 2.2 1.6 4 3.8 4.1s3.9-1.7 4-3.9v-.3zm8.4-.2l-5.1-7.2h4.2l3 4.4 3.1-4.4h4.2l-5.2 7.1 5.4 7.5h-4.2l-3.4-4.7-3.3 4.7H154l5.5-7.4z" fill="#f3f6ff"/><radialGradient id="A" cx="-49.085" cy="305.376" r="1" gradientTransform="matrix(40.7789 0 0 -40.4306 2072.3022 12391.7432)" gradientUnits="userSpaceOnUse"><stop offset="0" stop-color="#fff36e"/><stop offset=".5" stop-color="#fc4055"/><stop offset="1" stop-color="#e31587"/></radialGradient><use xlink:href="#O" fill="url(#A)"/><radialGradient id="B" cx="-48.537" cy="303.768" r="1" gradientTransform="matrix(31.7133,0,0,-31.4425,1570.9989,9597.7568)" gradientUnits="userSpaceOnUse"><stop offset="0" stop-color="#c60084"/><stop offset="1" stop-color="#fc4055" stop-opacity="0"/></radialGradient><use xlink:href="#O" opacity=".67" fill="url(#B)"/><radialGradient id="C" cx="-49.704" cy="307.194" r="1" gradientTransform="matrix(60.2577,0,0,-59.7431,3072.0669,18394.7734)" gradientUnits="userSpaceOnUse"><stop offset="0" stop-color="#ffde67" stop-opacity=".6"/><stop offset=".66" stop-color="#fc4055" stop-opacity="0"/></radialGradient><use xlink:href="#O" fill="url(#C)"/><radialGradient id="D" cx="-50.015" cy="308.107" r="1" gradientTransform="matrix(79.2874,0,0,-78.6102,4012.6733,24281.7383)" gradientUnits="userSpaceOnUse"><stop offset=".15" stop-color="#810220"/><stop offset=".27" stop-color="#fc4055" stop-opacity="0"/></radialGradient><use xlink:href="#O" fill="url(#D)"/><radialGradient id="E" cx="-49.922" cy="307.836" r="1" gradientTransform="matrix(72.4922,0,0,-71.8731,3670.1938,22188.2969)" gradientUnits="userSpaceOnUse"><stop offset=".12" stop-color="#810220"/><stop offset=".3" stop-color="#fc4055" stop-opacity="0"/></radialGradient><use xlink:href="#O" fill="url(#E)"/><radialGradient id="F" cx="-49.244" cy="305.974" r="1" gradientTransform="matrix(44.4757 0 0 -45.2453 2256.4487 13886.8516)" gradientUnits="userSpaceOnUse"><stop offset="0" stop-color="#ff9640"/><stop offset=".8" stop-color="#fc4055"/></radialGradient><use xlink:href="#P" fill="url(#F)"/><radialGradient id="G" cx="-49.275" cy="306.063" r="1" gradientTransform="matrix(45.2774,0,0,-46.0608,2297.7471,14143.3008)" gradientUnits="userSpaceOnUse"><stop offset=".09" stop-color="#ffde67"/><stop offset=".82" stop-color="#ff9640" stop-opacity="0"/></radialGradient><use xlink:href="#P" fill="url(#G)"/><radialGradient id="H" cx="-47.39" cy="300.67" r="1" gradientTransform="matrix(21.6384,0,0,-22.0128,1080.9271,6677.0327)" gradientUnits="userSpaceOnUse"><stop offset=".36" stop-color="#fc4055"/><stop offset=".59" stop-color="#ff9640" stop-opacity="0"/></radialGradient><use xlink:href="#P" opacity=".53" fill="url(#H)"/><radialGradient id="I" cx="-47.39" cy="300.67" r="1" gradientTransform="matrix(21.6384,0,0,-22.0128,1076.9187,6678.2236)" gradientUnits="userSpaceOnUse"><stop offset=".22" stop-color="#fc4055" stop-opacity=".8"/><stop offset=".47" stop-color="#ff9640" stop-opacity="0"/></radialGradient><use xlink:href="#P" opacity=".53" fill="url(#I)"/><radialGradient id="J" cx="-49.459" cy="306.777" r="1" gradientTransform="matrix(50.6949 0 0 -53.8419 2578.2673 16557.5098)" gradientUnits="userSpaceOnUse"><stop offset=".05" stop-color="#fff36e"/><stop offset=".55" stop-color="#ff9640"/></radialGradient><path d="M54.9 71c9.2-.6 13.1-8.6 13.4-14.1.4-8.8-4.6-18.3-17.9-17.4-2.4-.1-4.8.2-7.1.9-1.5.5-2.9 1.2-4.2 2-.2.2-.4.3-.6.5 3.4-2 7.4-2.8 11.3-2.2 7.7 1.1 14.7 7.2 14.7 15.4 0 6.2-4.6 11-10.1 10.7-8.1-.5-10.2-9.1-5.9-12.9-1.1-.3-3.2.3-4.7 2.6-1.3 2.1-1.3 5.3-.5 7.6 2 4.5 6.6 7.4 11.6 6.9z" fill="url(#J)"/><linearGradient id="K" gradientUnits="userSpaceOnUse" x1="50.459" y1="38.581" x2="58.508" y2="62.268"><stop offset="0" stop-color="#b833e1"/><stop offset=".37" stop-color="#9059ff"/><stop offset="1" stop-color="#0090ed"/></linearGradient><use xlink:href="#Q" fill="url(#K)"/><linearGradient id="L" gradientUnits="userSpaceOnUse" x1="60.11" y1="56.141" x2="45.027" y2="38.067"><stop offset="0" stop-color="#592acb" stop-opacity=".5"/><stop offset=".24" stop-color="#722291" stop-opacity="0"/></linearGradient><use xlink:href="#Q" fill="url(#L)"/><linearGradient id="M" gradientUnits="userSpaceOnUse" x1="57.945" y1="45.448" x2="37.804" y2="83.615"><stop offset="0" stop-color="#fff36e" stop-opacity=".8"/><stop offset=".09" stop-color="#fff36e" stop-opacity=".7"/><stop offset=".75" stop-color="#fff36e" stop-opacity="0"/></linearGradient><path d="M67.9 47.5c-.6-.8-1.3-1.5-1.9-2.2-.6-.6-1.2-1.2-1.8-1.6.4.3.7.7 1.1 1 1.3 1.3 2.1 2.9 2.7 4.6 1.2 3.5 1.1 8-1.2 11.4-2.5 3.9-7.1 6.3-11.8 6.1h-.6c-8.5-.5-10.7-9.1-6.2-12.9-1.2-.3-3.4.3-4.9 2.6-1.4 2.1-1.4 5.3-.5 7.6-.6-1.2-1-2.3-1.1-3.5-1.2-7.7 3.9-14 8.5-15.5-2.5-2.2-8.8-2-13.5 1.3-2.7 2-4.8 4.9-5.6 8.2.3-2.7 1.1-5.2 2.3-7.6-1.6.8-3.6 3.4-4.6 5.7-1.5 3.5-1.9 7.5-1.5 11.3 0 .3.1.6.1.9C29.5 77 41.3 85.1 53.6 83S74.2 69.3 72 57.1c-.6-3.5-2-6.8-4.1-9.6z" fill="url(#M)"/><defs ><path id="O" d="M68 47.3c-4.1-5.4-10.4-8.6-17.2-8.9-5.2-.1-8.9 1.4-11 2.7 2.7-1.5 6.7-2.5 10.2-2.4 8.9.1 18.6 6.2 20 17.1 1.6 12.5-7.2 23-19.5 23-13.6 0-21.9-12-19.7-22.7 0-.5.1-1.1.2-1.5.3-2.8 1.1-5.4 2.3-7.9-1.6.8-3.6 3.4-4.6 5.7-1.5 3.6-1.9 7.5-1.5 11.4 0 .3.1.6.1.9 2.2 12.2 14 20.4 26.3 18.3S74.2 69.2 72 57c-.5-3.5-1.9-6.9-4-9.7z"/><path id="P" d="M70.1 55.1c-1.2-11.5-11.4-16.7-20.3-16.7-3.5 0-7.4.9-10.1 2.4-.7.4-1.3 1-2 1.6.1-.1.3-.2.7-.5 1.3-1 2.8-1.7 4.3-2 2.4-.7 4.9-1 7.4-.9 9.6.6 17.2 8.5 17.5 18.2.2 7.5-5.9 13.4-12.9 13.8-5.1.3-9.9-2.2-12.2-7.2-.6-1.2-1-2.3-1.1-3.6-1.1-7.7 3.9-14.1 8.5-15.7-2.5-2.2-8.7-2-13.3 1.4-3.4 2.5-5.5 6.2-6.2 10.8-.5 3.5-.1 7 1.3 10.2 2.9 6.9 9.4 11.7 16.9 12.2.6 0 1.2.1 1.6.1 14.9 0 21.4-11.4 19.9-24.1z"/><path id="Q" d="M67.5 49.1c-.6-1.8-1.5-3.3-2.6-4.7-1.4-1.6-3.1-2.8-5-3.7-1.6-.8-3.2-1.4-4.9-1.8a19.98 19.98 0 0 0-9.1 0c-3.1.7-5.8 2.1-7.6 3.8 1.4-.8 2.8-1.5 4.4-1.9 6.1-1.6 12.4.2 17 4.6.9.9 1.7 2 2.3 3 2.7 4.5 2.4 10.3.4 13.6-1.6 2.5-4.9 4.9-7.9 4.8 4.8.4 9.3-2.1 11.9-6.2 2.2-3.3 2.2-7.8 1.1-11.5z"/></defs></svg>