<svg xmlns="http://www.w3.org/2000/svg" width="196" height="120" fill="none" xmlns:v="https://vecta.io/nano"><path fill-rule="evenodd" d="M81.121 49.06v18.292h6.749v3.155H77.528V49.06h3.593zm19.433 9.099v-1.929h3.406v14.276h-3.406v-1.931c-.458.715-1.109 1.277-1.954 1.685s-1.692.612-2.546.612c-1.104 0-2.115-.199-3.031-.597a7.09 7.09 0 0 1-2.359-1.639 7.6 7.6 0 0 1-1.53-2.39 7.58 7.58 0 0 1-.547-2.88c0-1 .182-1.955.547-2.865.352-.89.871-1.705 1.53-2.404.664-.7 1.467-1.258 2.359-1.64.916-.399 1.927-.598 3.031-.598.854 0 1.703.205 2.546.614s1.495.97 1.953 1.684h0zm-.313 6.955a4.89 4.89 0 0 0 .313-1.746c0-.614-.104-1.196-.313-1.747a4.4 4.4 0 0 0-.874-1.44 4.23 4.23 0 0 0-1.359-.98c-.532-.245-1.12-.367-1.766-.367s-1.229.123-1.75.367-.969.572-1.343.98c-.381.418-.673.908-.859 1.44-.2.561-.3 1.152-.297 1.746 0 .613.099 1.196.297 1.746a4.19 4.19 0 0 0 .859 1.44c.378.411.834.744 1.343.98.52.246 1.104.367 1.75.367s1.235-.122 1.766-.367c.515-.234.977-.567 1.359-.981a4.4 4.4 0 0 0 .874-1.44h0zm6.405 5.392V56.23h9.249v3.286h-5.843v10.991h-3.406 0zm21.59-12.347v-1.929h3.405v14.276h-3.406v-1.931c-.458.715-1.109 1.277-1.953 1.685s-1.692.612-2.545.612c-1.105 0-2.115-.199-3.031-.597-.892-.381-1.695-.939-2.359-1.639-.657-.695-1.176-1.506-1.53-2.39-.369-.916-.555-1.894-.548-2.88a7.6 7.6 0 0 1 .548-2.865 7.56 7.56 0 0 1 1.53-2.404c.664-.7 1.467-1.258 2.359-1.64.916-.399 1.926-.598 3.031-.598.853 0 1.703.205 2.546.614s1.494.97 1.953 1.684h0zm-.313 6.955a4.91 4.91 0 0 0 .312-1.746 4.93 4.93 0 0 0-.312-1.747c-.196-.531-.493-1.019-.875-1.44a4.23 4.23 0 0 0-1.359-.98c-.531-.245-1.119-.367-1.765-.367s-1.229.123-1.75.367a4.28 4.28 0 0 0-1.343.98c-.381.418-.673.908-.859 1.44-.2.561-.301 1.152-.298 1.746 0 .613.099 1.196.298 1.746a4.18 4.18 0 0 0 .859 1.44 4.26 4.26 0 0 0 1.343.98c.521.246 1.104.367 1.75.367s1.235-.122 1.765-.367c.515-.234.977-.567 1.359-.981.382-.42.679-.909.875-1.44h0zm17.371-8.885h3.45l-5.59 14.276h-4.28l-5.589-14.276h3.449l4.28 10.932 4.28-10.932h0zm10.876-.367c4.638 0 7.8 4.029 7.206 8.746h-11.298c0 1.232 1.268 3.613 4.28 3.613 2.59 0 4.326-2.234 4.327-2.236l2.301 1.746c-2.057 2.154-3.741 3.143-6.379 3.143-4.713 0-7.907-2.924-7.907-7.506 0-4.145 3.301-7.506 7.47-7.506h0zm-4.083 6.265h8.162c-.025-.275-.468-3.613-4.105-3.613s-4.03 3.338-4.057 3.613h0zm13.507 8.379V49.06H169v21.446h-3.406 0zm-98.43-21.613a.63.63 0 0 1 .023.166v8.708a.63.63 0 0 1-.088.319.64.64 0 0 1-.238.232l-7.453 4.208v8.34a.63.63 0 0 1-.088.318.64.64 0 0 1-.238.232l-15.556 8.783c-.036.021-.075.033-.113.046-.015.005-.029.013-.044.017-.109.028-.224.028-.332 0-.018-.005-.034-.014-.051-.021-.036-.012-.073-.024-.106-.043l-15.557-8.782a.64.64 0 0 1-.238-.233.63.63 0 0 1-.087-.319V44.742a.63.63 0 0 1 .023-.166c.005-.019.016-.036.023-.053.013-.034.024-.068.042-.099.012-.021.03-.038.044-.056.019-.026.036-.053.058-.075s.043-.032.064-.048.044-.038.071-.053h.001l7.779-4.391a.66.66 0 0 1 .646 0l7.779 4.391h.002c.026.016.047.037.071.054s.044.029.063.048.039.05.058.074c.014.019.032.036.044.057.018.031.029.065.042.099.007.018.017.034.023.053a.63.63 0 0 1 .022.166v16.316l6.483-3.66v-8.34a.63.63 0 0 1 .022-.166c.006-.019.016-.035.023-.053.012-.033.023-.068.041-.099.012-.021.03-.038.044-.056.019-.026.035-.053.058-.074s.042-.032.063-.048.045-.04.072-.054v-.001l7.779-4.391a.66.66 0 0 1 .646 0l7.778 4.391h.001c.027.016.048.037.073.054s.044.03.063.048.039.049.057.074c.015.019.032.036.044.057.019.031.029.065.042.099.007.018.018.034.023.053h0zm-1.274 8.506v-7.241l-2.722 1.537-3.76 2.123v7.241l6.481-3.66h.001zm-7.778 13.099v-7.246l-3.7 2.071-10.561 5.911v7.314l14.261-8.051v.002zM28.296 45.842v24.656l14.26 8.051v-7.313l-7.449-4.134-.002-.002-.003-.001c-.026-.014-.046-.035-.069-.053s-.044-.029-.062-.046l-.002-.002c-.021-.02-.036-.045-.053-.067s-.035-.039-.048-.061l-.001-.002c-.015-.024-.023-.053-.034-.08s-.024-.046-.031-.071v-.001c-.009-.03-.01-.062-.014-.093-.002-.024-.01-.047-.01-.072V49.5l-3.759-2.122-2.723-1.537zm7.13-4.757l-6.479 3.659 6.479 3.657 6.479-3.658-6.479-3.658h0zm3.37 22.828l3.759-2.122V45.842l-2.721 1.537-3.76 2.123v15.948l2.722-1.537h0zm19.964-18.511l-6.479 3.657 6.479 3.658 6.479-3.658-6.479-3.657h0zm-.648 8.416l-3.76-2.123-2.722-1.537v7.241l3.759 2.123 2.722 1.537v-7.242.001zM43.203 70.135l9.503-5.32 4.751-2.659-6.474-3.656-7.455 4.209-6.794 3.836 6.47 3.59z" fill="#b4b7c9"/></svg>