<svg xmlns="http://www.w3.org/2000/svg" width="196" height="120" fill="none" xmlns:v="https://vecta.io/nano"><path d="M40.521 59.234l.244-.073c1.821-.581 3.608-1.279 5.35-2.091 1.767-.739 3.426-1.745 4.924-2.987 1.591-1.348 2.788-3.152 3.451-5.199.143-.337.248-.691.313-1.054-2.394 3.484-11.883 3.848-11.883 3.848l2.24-2.187c-6.519.022-12.868 2.215-18.16 6.272 3.584.409 6.955 2.015 9.632 4.587 1.285-.424 2.598-.727 3.889-1.109v-.006zm14.879-.352a49.26 49.26 0 0 0-17.853 2.424c1.213 1.349 2.225 2.888 3.002 4.563C45.331 63.033 51.96 59.397 55.4 58.9v-.018zm-14.248 8.441c.567 1.555.931 3.187 1.08 4.848l8.341-9.138-9.421 4.29z" fill="#ff6200"/><path d="M104.698 63.255c-.991 0-1.942-.43-2.642-1.197s-1.095-1.805-1.095-2.889.394-2.122 1.095-2.889 1.651-1.197 2.642-1.197 1.941.43 2.642 1.197 1.095 1.805 1.095 2.889-.394 2.122-1.095 2.889-1.651 1.197-2.642 1.197zm0-12.626c-1.178.015-2.338.323-3.392.899s-1.974 1.407-2.691 2.428a8.9 8.9 0 0 0-1.451 3.47c-.237 1.262-.209 2.566.082 3.814s.837 2.408 1.598 3.392 1.715 1.766 2.793 2.288 2.249.769 3.426.724 2.331-.382 3.372-.985v1.033c-.002 1.083-.396 2.121-1.096 2.887s-1.65 1.197-2.641 1.198a1.95 1.95 0 0 0-1.439.652c-.382.417-.596.983-.596 1.573s.214 1.156.596 1.573a1.95 1.95 0 0 0 1.439.652c2.062-.008 4.038-.907 5.497-2.501s2.281-3.754 2.288-6.009v-8.511c-.007-2.255-.83-4.415-2.288-6.009s-3.435-2.493-5.497-2.501v-.067h0zm-38.47 12.626c-.739.001-1.462-.237-2.077-.685s-1.095-1.085-1.379-1.831a4.44 4.44 0 0 1-.216-2.36c.143-.793.498-1.521 1.02-2.093a3.65 3.65 0 0 1 1.912-1.121c.725-.159 1.476-.079 2.159.229a3.83 3.83 0 0 1 1.679 1.502 4.36 4.36 0 0 1 .633 2.269c.001.536-.095 1.068-.282 1.564a4.13 4.13 0 0 1-.808 1.327c-.346.38-.758.681-1.211.888s-.939.313-1.43.313h0zm0-12.626c-2.062.008-4.038.907-5.497 2.502s-2.281 3.754-2.288 6.009v12.158c0 .292.053.581.155.851a2.25 2.25 0 0 0 .441.722c.189.207.413.37.66.482s.512.169.779.169.532-.058.779-.169.471-.276.66-.482a2.25 2.25 0 0 0 .441-.722c.102-.27.155-.559.155-.851v-4.657c1.041.601 2.194.936 3.371.979s2.348-.205 3.424-.728a7.89 7.89 0 0 0 2.789-2.289 8.82 8.82 0 0 0 1.595-3.391c.29-1.248.318-2.551.081-3.812a8.9 8.9 0 0 0-1.45-3.468c-.717-1.021-1.636-1.851-2.689-2.428s-2.212-.884-3.389-.901l-.017.024zm21.899 0c-2.062.008-4.038.907-5.497 2.502s-2.281 3.754-2.288 6.009v6.31c0 .59.215 1.156.596 1.573s.899.652 1.439.652 1.058-.234 1.439-.652.596-.983.596-1.573v-6.28c0-1.082.393-2.119 1.093-2.884s1.649-1.195 2.638-1.195 1.939.43 2.638 1.195 1.093 1.802 1.093 2.884v6.31c-.014.302.027.603.123.886s.243.542.433.761.419.394.673.513a1.89 1.89 0 0 0 1.607 0c.254-.119.483-.294.673-.513s.338-.478.433-.761.137-.585.123-.886v-6.31c-.007-2.255-.83-4.415-2.288-6.009s-3.434-2.493-5.497-2.501l-.028-.03zm49.725 12.553c-.992 0-1.942-.43-2.643-1.196s-1.094-1.805-1.094-2.889.393-2.122 1.094-2.889 1.651-1.196 2.643-1.196 1.941.43 2.642 1.196 1.094 1.805 1.094 2.889-.393 2.123-1.094 2.889-1.651 1.196-2.642 1.196h0zm0-12.626c-1.54 0-3.045.499-4.326 1.434s-2.278 2.264-2.867 3.819-.743 3.266-.443 4.917 1.042 3.167 2.131 4.358 2.476 2.001 3.986 2.329 3.075.16 4.498-.484 2.638-1.735 3.494-3.134 1.312-3.045 1.312-4.728c0-2.257-.82-4.422-2.28-6.018s-3.441-2.493-5.505-2.493h0zm-16.577 12.699c-.739 0-1.462-.24-2.076-.688s-1.094-1.087-1.377-1.833a4.43 4.43 0 0 1-.212-2.36c.144-.792.5-1.52 1.022-2.092s1.189-.96 1.914-1.118a3.44 3.44 0 0 1 2.159.233 3.83 3.83 0 0 1 1.677 1.505c.41.672.63 1.462.63 2.27 0 1.084-.394 2.122-1.095 2.889s-1.651 1.197-2.642 1.197zm5.766-18.462c-.539 0-1.057.234-1.439.652s-.596.983-.596 1.573v4.656c-1.497-.89-3.221-1.219-4.905-.935s-3.238 1.164-4.421 2.506-1.93 3.071-2.127 4.922.167 3.721 1.036 5.324 2.196 2.85 3.776 3.549 3.326.812 4.971.321 3.096-1.558 4.132-3.037 1.599-3.29 1.603-5.154V47.012c0-.59-.214-1.156-.596-1.573s-.899-.652-1.439-.652l.005.006zm-50.008 5.836c-.54 0-1.057.234-1.439.652s-.596.983-.596 1.573v12.62c0 .59.214 1.156.596 1.573s.899.652 1.439.652 1.057-.234 1.439-.652.596-.983.596-1.573V52.86c0-.59-.214-1.156-.596-1.573s-.899-.652-1.439-.652v-.006zm-2.035-3.611c0 .292.053.582.155.851a2.25 2.25 0 0 0 .441.722c.189.207.413.37.66.482s.512.169.779.169.532-.058.779-.169.471-.276.66-.482a2.25 2.25 0 0 0 .441-.722c.102-.27.155-.559.155-.851 0-.59-.214-1.156-.596-1.573s-.899-.652-1.439-.652-1.057.234-1.439.652-.596.983-.596 1.573h0zm82.301 20.614c.54 0 1.057-.234 1.439-.652s.596-.983.596-1.573v-9.465a.98.98 0 0 1 .249-.658c.16-.174.376-.272.602-.272.99.002 1.939.433 2.639 1.199s1.092 1.804 1.092 2.886v6.273c0 .59.215 1.156.596 1.573s.9.652 1.439.652 1.058-.234 1.44-.652.596-.983.596-1.573v-6.273c-.008-2.255-.83-4.415-2.289-6.009s-3.434-2.493-5.496-2.501c-.989-.003-1.969.204-2.887.608-.917-.404-1.897-.611-2.886-.608-2.062.01-4.037.909-5.495 2.503s-2.281 3.753-2.29 6.007v6.273c0 .59.215 1.156.596 1.573s.9.652 1.44.652 1.057-.234 1.439-.652.596-.983.596-1.573v-6.273c.006-1.079.402-2.112 1.102-2.873s1.647-1.188 2.635-1.188c.225 0 .442.098.601.272s.249.411.249.658v9.404c0 .292.052.582.153.852a2.25 2.25 0 0 0 .44.723c.188.207.412.372.659.484a1.88 1.88 0 0 0 .778.172" fill="#f3f6ff"/></svg>