<svg xmlns="http://www.w3.org/2000/svg" viewBox="0 0 196 120" xmlns:v="https://vecta.io/nano"><path d="M63.6 44.3c0-.2-.2-.4-.4-.4s-4.1-.3-4.1-.3L56 40.4c-.3-.3-.8-.2-1.1-.1l-1.6.5c-.9-2.6-2.5-5.1-5.4-5.1h-.2c-.7-1-1.8-1.6-2.6-1.6-6.6 0-9.7 8.4-10.8 12.6l-4.7 1.5c-1.4.4-1.4.5-1.7 1.9l-3.8 30.2 29.2 5.5 15.8-3.4c.1 0-5.5-37.9-5.5-38.1zm-11.9-3c-.7.2-1.6.5-2.5.7v-.5c0-1.4-.2-2.7-.6-4.1 1.6.3 2.5 2 3.1 3.9zm-4.8-3.5c.5 1.5.7 2.9.6 4.5v.3l-5.1 1.6c1-3.8 2.9-5.7 4.5-6.4zm-2-1.8c.3 0 .6.1.8.3-2.2 1-4.3 3.6-5.4 8.6l-4 1.3c1.2-3.9 3.9-10.3 8.6-10.2z" fill="#95bf47"/><path d="M63.1 43.7c-.2 0-4.1-.3-4.1-.3l-3-3a.76.76 0 0 0-.4-.2l-2.2 45.6 15.8-3.4-5.6-38c-.1-.3-.2-.5-.5-.7z" fill="#5e8e3e"/><path d="M48 52.6l-2 5.9c-1.1-.6-2.5-.9-3.8-.9-3.1 0-3.2 2-3.2 2.4 0 2.6 6.9 3.7 6.9 9.9 0 4.9-3.1 8.2-7.2 8.2-5 0-7.6-3.1-7.6-3.1l1.3-4.5s2.6 2.3 4.9 2.3c1.1 0 2-.8 2.1-1.9v-.1c0-3.6-5.7-3.7-5.7-9.4 0-4.8 3.4-9.5 10.3-9.5 2.8 0 4 .7 4 .7zm34.9 8.7c-1.1-.6-1.8-1.1-1.8-1.9 0-.9.8-1.5 2.1-1.5a7.06 7.06 0 0 1 2.8.6l1-3.2s-.9-.7-3.7-.7c-3.9 0-6.6 2.3-6.6 5.4 0 1.8 1.2 3.1 2.9 4.2 1.3.8 1.9 1.4 1.9 2.2s-.6 1.6-2 1.6c-1.9 0-3.6-.9-3.6-.9l-1.1 3.2s1.7 1.1 4.3 1.1c4 0 6.9-2 6.9-5.5.1-2.2-1.4-3.5-3.1-4.6zm16-6.7c-2 0-3.5.9-4.8 2.4H94l1.8-9.1h-4.4l-4.3 23h4.4l1.4-7.8c.6-2.9 2.1-4.8 3.5-4.8 1 0 1.3.6 1.3 1.7 0 .6-.1 1.4-.2 2l-1.7 9h4.4l1.8-9.3a14.28 14.28 0 0 0 .3-2.9c.2-2.6-1.1-4.2-3.4-4.2zm13.7 0c-5.4 0-8.9 4.9-8.9 10.3 0 3.4 2.2 6.3 6.1 6.3 5.3 0 8.8-4.8 8.8-10.3.1-3.3-1.8-6.3-6-6.3zm-2.2 13.2c-1.6 0-2.2-1.4-2.2-2.9 0-2.6 1.3-6.8 3.7-6.8 1.6 0 2.1 1.4 2.1 2.7.1 2.8-1.2 7-3.6 7zM130 54.6c-3 0-4.8 2.6-4.8 2.6h-.1l.3-2.4h-3.9l-.9 6-3.1 16.5h4.4l1.2-6.7h.1s.9.6 2.6.6c5.3 0 8.7-5.4 8.7-10.9.2-3-1.1-5.7-4.5-5.7zm-4.2 13.3c-.7 0-1.3-.2-1.9-.6l.7-4.2c.5-2.8 2-4.7 3.5-4.7 1.3 0 1.8 1.3 1.8 2.5.1 2.8-1.6 7-4.1 7zM141 48.1c-.7 0-1.3.3-1.9.7-.5.5-.7 1.1-.7 1.9 0 1.4.8 2.3 2.1 2.3h.1c1.3.1 2.6-1 2.6-2.4v-.2c.1-1.3-.7-2.3-2.2-2.3zm-6.2 22.8h4.4l3-16h-4.4m15.8 0h-3.1l.1-.7c.3-1.6 1.1-2.9 2.6-2.9.5 0 .9.1 1.4.2l.8-3.6s-.8-.4-2.4-.4-3.1.5-4.3 1.5c-1.6 1.4-2.3 3.2-2.6 5.1l-.1.7h-2l-.6 3.3h2.1l-2.4 12.6h4.4l2.4-12.6h3.1l.6-3.2zm10.8 0l-4 11h-.1l-1.1-11h-4.7l2.7 14.6c.1.2 0 .5-.1.7-.6 1-1.4 2-2.4 2.7-.7.5-1.7.9-2.5 1.3l1.2 3.9c1.7-.4 3.1-1.3 4.3-2.5 2.1-1.9 3.9-4.9 5.9-9l5.5-11.8-4.7.1z" fill="#fff"/></svg>