<svg xmlns="http://www.w3.org/2000/svg" viewBox="0 0 196 120" xmlns:v="https://vecta.io/nano"><path d="M102.3 49.9l5.5 17.4h.2l5.5-17.4h4.2L110.3 72h-4.7l-7.5-22.1h4.2zM120.4 72V55.4h3.7V72h-3.7zm1.9-19c-.6 0-1.1-.2-1.5-.6s-.6-.9-.6-1.5.2-1.1.6-1.5.9-.6 1.5-.6 1.1.2 1.5.6.6.9.6 1.5-.2 1.1-.6 1.5-.9.6-1.5.6zm13.6 2.4v3h-9.1v-3h9.1zm-6.9-4h3.7V67a3.73 3.73 0 0 0 .2 1.2c.2.3.4.5.6.6.3.1.5.2.8.2.2 0 .4 0 .6-.1.2 0 .4-.1.5-.1l.6 3.1c-.2.1-.5.2-.9.2-.4.1-.8.1-1.3.2-.9 0-1.8-.1-2.5-.4-.8-.3-1.3-.8-1.8-1.5-.4-.7-.6-1.6-.6-2.6V51.4zm16.9 20.9c-1.6 0-3-.3-4.1-1-1.2-.7-2-1.7-2.7-3-.6-1.3-.9-2.8-.9-4.5s.3-3.2.9-4.5 1.5-2.3 2.6-3 2.4-1.1 4-1.1c1 0 1.9.2 2.8.5s1.6.8 2.3 1.5 1.2 1.6 1.6 2.6c.4 1.1.6 2.3.6 3.8v1.2h-13v-2.6h9.4c0-.7-.2-1.4-.5-2s-.7-1.1-1.3-1.4c-.5-.3-1.2-.5-1.9-.5-.8 0-1.4.2-2 .6s-1 .9-1.4 1.5c-.3.6-.5 1.3-.5 2v2.3c0 1 .2 1.8.5 2.5s.8 1.2 1.4 1.6 1.3.5 2.1.5c.5 0 1-.1 1.5-.2.4-.2.8-.4 1.1-.7s.6-.7.7-1.2l3.5.4c-.2 1-.6 1.8-1.3 2.5-.6.7-1.4 1.3-2.4 1.7-.6.3-1.7.5-3 .5z" fill="#0b0f19"/><linearGradient id="A" gradientUnits="userSpaceOnUse" x1="53.342" y1="32.679" x2="80.783" y2="68.631"><stop offset="0" stop-color="#41d1ff"/><stop offset="1" stop-color="#bd34fe"/></linearGradient><path d="M87.8 43.8l-21 39.1c-.4.8-1.6.8-2 0L43.3 43.8c-.4-.9.2-2 1.2-1.7l21.1 4h.4l20.6-4c1-.1 1.7.9 1.2 1.7z" fill="url(#A)"/><linearGradient id="B" gradientUnits="userSpaceOnUse" x1="66.501" y1="37.05" x2="71.8" y2="71.02"><stop offset="0" stop-color="#ffea83"/><stop offset=".083" stop-color="#ffdd35"/><stop offset="1" stop-color="#ffa800"/></linearGradient><path d="M75.6 36.5l-15.3 3.2c-.2 0-.4.2-.4.6l-1 16.9c0 .4.3.7.7.6l4.3-1.1c.4-.1.8.2.7.7L63.2 64c-.1.5.3.8.7.7l2.6-.8c.4-.1.8.2.7.7l-2 10.3c-.1.7.7 1.1 1 .5l.2-.4L79 48.5c.2-.5-.1-.9-.7-.8l-4.4.9c-.4.1-.8-.4-.7-.7l2.9-10.6c.2-.5-.1-.9-.5-.8z" fill="url(#B)"/></svg>