<svg xmlns="http://www.w3.org/2000/svg" width="196" height="120" fill="none" xmlns:v="https://vecta.io/nano"><g fill="#8053b4"><path d="M53.432 58.442c.39-.602.849-1.273 1.56-1.504.505-.162 1.101.023 1.399.44.734 1.111.849 2.522.619 3.795-.229 1.134-.665 2.268-1.537 3.031-.39.347-.895.671-1.445.579-.527-.093-.849-.579-1.055-1.018-.78-1.689-.505-3.749.459-5.322zm11.858.172c.407-.662.864-1.404 1.63-1.677.505-.162 1.101.023 1.376.417.665.972.849 2.198.711 3.332-.138 1.226-.527 2.476-1.422 3.355-.413.393-.918.764-1.491.74-.528-.023-.918-.463-1.124-.926-.803-1.643-.573-3.656.298-5.206l.022-.035z"/><path d="M32.304 49.001c-1.674 0-3.28 1.111-3.922 2.661-.298.671-.367 1.412-.367 2.129l.012 7.165.011 7.182c.023 2.198 1.927 4.165 4.106 4.235l7.815.004 10.398.019 4.946 2.757L58.591 77l-.929-2.314-.929-2.314 4.611.005 9.221-.005c2.179-.046 4.083-2.036 4.106-4.235V53.467c.023-1.25-.505-2.499-1.422-3.332a4.35 4.35 0 0 0-3.005-1.134h-37.94zm17.16 3.355c-.528-.856-1.858-1.088-2.546-.347-.375.463-.599 1.021-.826 1.589l-.068.17c-1.124 2.939-1.56 6.109-1.904 9.233-.803-2.059-1.353-4.235-1.766-6.41-.092-.486-.229-1.018-.573-1.388-.436-.463-1.17-.486-1.675-.162-.367.231-.619.625-.826 1.018l-4.129 7.937c-.826-3.309-1.399-6.664-1.904-10.043-.069-.44-.161-.926-.505-1.226-.482-.44-1.239-.393-1.812-.185-.711.278-1.009 1.157-.849 1.874l.099.604c.677 4.151 1.357 8.315 2.516 12.354a15.78 15.78 0 0 1 .193.593c.232.745.472 1.517 1.069 2.045.505.393 1.17.046 1.56-.347.918-.925 1.537-2.106 2.11-3.263l2.523-5.091c.849 2.892 2.019 5.785 4.083 8.029.459.509 1.124.995 1.835.833.757-.185 1.101-1.041 1.055-1.759-.138-2.8.229-5.6.665-8.353.367-2.106.78-4.258 1.743-6.202a1.59 1.59 0 0 0-.069-1.504zm9.336 2.8c-1.009-1.134-2.615-1.643-4.106-1.458-.895.116-1.743.509-2.431 1.134-2.363 2.198-3.303 5.715-2.753 8.886.275 1.388.941 2.777 2.133 3.61 1.491.995 3.555 1.111 5.092.162 1.055-.625 1.789-1.666 2.363-2.73 1.009-1.874 1.399-4.096 1.147-6.201-.161-1.226-.619-2.453-1.445-3.402zm11.836-.093c-1.009-1.088-2.592-1.55-4.037-1.365-.986.116-1.927.625-2.707 1.319-2.386 2.499-3.257 6.387-2.225 9.695.39 1.088 1.055 2.106 2.041 2.707 1.468.879 3.441.972 4.909.069 1.101-.648 1.858-1.712 2.431-2.8.963-1.805 1.331-3.934 1.124-5.97-.138-1.342-.619-2.661-1.537-3.656z" fill-rule="evenodd"/></g><path fill-rule="evenodd" d="M82.716 54.221a8.77 8.77 0 0 1 3.905.047v3.17c-1.046-.258-2.231-.493-3.231 0-1.209.611-1.883 1.996-1.883 3.311-.07 1.315.372 2.794 1.534 3.546 1.069.704 2.441.564 3.603.235v3.17c-1.557.446-3.254.399-4.765-.164-1.813-.681-3.254-2.278-3.812-4.156-.418-1.432-.465-2.959-.14-4.414.535-2.325 2.487-4.227 4.788-4.743zm9.437-.164c1.58-.188 3.3.071 4.579 1.08 1.232.963 1.836 2.536 2.069 4.039.209 1.667.163 3.405-.349 5.002-.442 1.362-1.348 2.63-2.65 3.264-1.325.634-2.882.681-4.3.352-1.302-.305-2.464-1.174-3.115-2.372-.907-1.597-1.069-3.499-.999-5.307.07-1.55.465-3.17 1.487-4.367.837-.963 2.045-1.55 3.277-1.691zm.488 3.029c-.674.164-1.069.845-1.232 1.479-.325 1.268-.279 2.583-.186 3.874.093.704.163 1.456.651 2.019.651.751 1.976.657 2.557-.117.395-.493.511-1.127.581-1.738.139-1.08.163-2.184 0-3.264-.116-.657-.302-1.338-.767-1.832-.418-.423-1.046-.563-1.604-.423zm61.989-2.818c1.348-.352 2.765-.305 4.114-.023l.023 3.194c-1.023-.258-2.162-.493-3.161-.047-1.162.54-1.86 1.785-1.953 3.029-.139 1.409.233 3.006 1.465 3.827 1.069.751 2.463.611 3.649.258l-.023 3.194c-1.651.423-3.464.376-5.021-.305-1.72-.751-3.068-2.348-3.556-4.18-.372-1.409-.419-2.912-.07-4.344.511-2.207 2.348-4.015 4.533-4.602zm-53.761.094h4.486l1.51 7.373 1.581-7.373h4.602l1.766 13.29h-3.509l-.953-9.111-2.185 9.111h-2.394l-2.301-9.134-.907 9.134h-3.37l1.674-13.29zm16.084 0h4.486l1.51 7.373 1.581-7.373h4.579l1.766 13.29h-3.509l-.953-9.111-2.185 9.111h-2.394l-2.301-9.134-.907 9.134h-3.37l1.697-13.29zm14.945.047l7.205-.023v2.841h-3.626v2.442h3.138v2.747h-3.138v2.442h3.649v2.841h-7.205l-.023-13.29zm8.228-.047h4.509c1.418.047 2.929.399 3.975 1.409.953.892 1.278 2.372.906 3.616-.302 1.01-1.046 1.832-1.976 2.278l2.836 5.988h-3.742l-2.929-6.105v6.105h-3.556l-.023-13.29zm3.556 2.56v3.17c.651-.047 1.348-.07 1.883-.47.627-.47.558-1.432.162-2.043-.488-.587-1.348-.587-2.045-.657zm16.084-2.536h7.182v2.841h-3.649v2.442h3.138v2.747h-3.138v2.442h3.673v2.841h-7.206V54.386z" fill="#0b0f19"/></svg>