<svg xmlns="http://www.w3.org/2000/svg" xmlns:xlink="http://www.w3.org/1999/xlink" width="70" height="70" fill="none" xmlns:v="https://vecta.io/nano"><path d="M34.766 55.767s-7.359 3.606-7.768-6.788a.81.81 0 0 1 .747-.837c2.08-.167 7.652.078 7.022 7.625z" fill="url(#A)"/><path d="M27.744 48.142c-.24.019-.448.142-.584.32 3.166 3.887 7.606 7.306 7.606 7.306.63-7.548-4.942-7.793-7.022-7.626z" fill="url(#B)"/><path d="M33.549 66.356l-2.504-1.246 1.252.623-1.253-.621c.019-.039 1.917-3.936 2.806-10.439.82-5.989.927-15.485-3.213-26.711l2.624-.968c4.363 11.829 4.225 21.862 3.342 28.194-.965 6.913-2.969 10.997-3.054 11.168z" fill="url(#C)"/><path d="M33.261 26.993l-2.624.968c2.119 5.746 3.124 11.036 3.492 15.637l2.954 2.955c-.132-5.515-1.103-12.188-3.822-19.559z" fill="url(#D)"/><path d="M54.6 24.267c0 10.825-8.776 19.6-19.6 19.6s-19.6-8.775-19.6-19.6 8.775-19.6 19.6-19.6 19.6 8.775 19.6 19.6z" fill="url(#E)"/><path d="M15.4 24.266c0 6.996 3.666 13.134 9.18 16.602H45.42c5.514-3.468 9.18-9.607 9.18-16.602s-3.666-13.134-9.18-16.602H24.58c-5.515 3.469-9.18 9.607-9.18 16.602z" fill="url(#F)"/><path d="M15.4 24.267c0 4.991 1.866 9.545 4.937 13.005h29.325c3.071-3.46 4.937-8.014 4.937-13.005s-1.866-9.545-4.937-13.004H20.337c-3.071 3.46-4.937 8.014-4.937 13.005z" fill="url(#G)"/><path d="M15.4 24.267c0 2.917.638 5.684 1.781 8.172h35.639c1.143-2.488 1.781-5.255 1.781-8.172s-.638-5.684-1.781-8.171H17.181c-1.143 2.487-1.781 5.255-1.781 8.171z" fill="url(#H)"/><path d="M33.443 4.728C23.346 5.521 15.4 13.966 15.4 24.266s7.946 18.745 18.043 19.539c10.097-.793 18.044-9.238 18.044-19.539S43.541 5.521 33.443 4.728z" fill="url(#I)"/><path d="M34.458 6.522c-.673-.092-1.356-.092-2.029 0-8.738 1.189-15.473 8.68-15.473 17.744s6.735 16.556 15.473 17.745c.673.092 1.356.092 2.029 0 8.738-1.189 15.473-8.68 15.473-17.745S43.196 7.711 34.458 6.522z" fill="url(#J)"/><path d="M46.472 24.267c0-7.898-5.868-14.3-13.107-14.3s-13.106 6.402-13.106 14.3 5.868 14.3 13.106 14.3 13.107-6.403 13.107-14.3z" fill="url(#K)"/><path d="M36.962 10.513c-1.631-.507-3.375-.507-5.006 0-5.489 1.706-9.508 7.217-9.508 13.753 0 6.664 4.178 12.263 9.832 13.85 1.424.4 2.935.4 4.359 0 5.654-1.587 9.832-7.186 9.832-13.85 0-6.536-4.02-12.047-9.508-13.753z" fill="url(#L)"/><path d="M46.322 26.432l-8.676-8.676c-.157-.275-.485-.501-.982-.68-.511-.184-1.055-.308-1.632-.377l-.761-.679c-.015-.107-.078-.205-.195-.291a.72.72 0 0 0-.435-.148c-.169 0-.315.05-.435.148s-.181.212-.181.34v.615c-1.145.127-2.103.509-2.874 1.145s-1.156 1.569-1.156 2.797c0 .438.049.836.148 1.196s.261.674.488.942a7.81 7.81 0 0 0 .647.688l.034.03 2.713 2.719v3.548c-.627-.042-1.179-.204-1.656-.487s-.852-.546-1.125-.794-.493-.37-.661-.37c-.253 0-.478.134-.675.402s-.295.536-.295.804c0 .439.255.872.763 1.299l7.455 7.456c4.936-1.473 8.709-6.014 9.49-11.628z" fill="url(#M)"/><path d="M28.613 29.305c0-.268.098-.536.295-.804s.421-.402.675-.402c.168 0 .388.123.661.37s.648.512 1.125.794 1.029.445 1.656.487v-4.974l-.976-.371-.902-.402c-.375-.176-.665-.36-.87-.55a7.88 7.88 0 0 1-.647-.688c-.226-.268-.389-.582-.488-.942s-.148-.759-.148-1.196c0-1.228.385-2.161 1.156-2.797s1.729-1.018 2.874-1.145v-.615c0-.127.06-.24.18-.34s.266-.148.435-.148a.72.72 0 0 1 .435.148c.134.099.202.212.202.34v.572a7.79 7.79 0 0 1 2.386.435c.728.262 1.093.626 1.093 1.093 0 .255-.086.52-.257.795s-.399.413-.685.413c-.113 0-.423-.12-.929-.361s-1.043-.382-1.608-.424v4.299l1.403.603c.372.191.766.455 1.181.794s.728.765.938 1.28.316 1.119.316 1.81c0 1.263-.345 2.267-1.034 3.013s-1.624 1.203-2.805 1.373v.709c0 .125-.068.236-.202.333s-.28.146-.435.146a.67.67 0 0 1-.435-.146c-.12-.097-.18-.209-.18-.333v-.645c-1.23-.014-2.273-.296-3.129-.845s-1.283-1.108-1.283-1.678zm2.481-8.891c0 .55.172.971.514 1.26s.857.561 1.543.815v-3.856c-1.371.17-2.057.764-2.057 1.782zm3.055 9.293c1.244-.226 1.867-.925 1.867-2.096 0-.621-.163-1.108-.488-1.46s-.785-.656-1.379-.91v4.466z" fill="url(#N)"/><path d="M57.101 70H14.81c-1.251 0-2.283-1.006-2.286-2.257v-.023c0-3.112 1.215-5.94 3.197-8.035a13.36 13.36 0 0 1 2.511-2.013 13.25 13.25 0 0 1 7.007-1.992 13.27 13.27 0 0 1 9.64 4.132c.607.636 1.51.903 2.36.675a6.88 6.88 0 0 1 1.795-.236c1.964 0 3.736.821 4.991 2.137.66.693 1.665.93 2.564.604.974-.353 2.025-.548 3.122-.548 3.901 0 7.231 2.445 8.542 5.884.308.809-.288 1.674-1.152 1.674z" fill="url(#O)"/><path d="M36.421 56.99s-2.422-11.966 12.712-8.636c.631.139 1.037.755.924 1.391-.544 3.061-2.997 10.999-13.637 7.245z" fill="url(#P)"/><path d="M50.059 49.745a1.21 1.21 0 0 0-.241-.961c-6.794 3.096-13.395 8.206-13.395 8.206 10.639 3.754 13.093-4.184 13.637-7.245z" fill="url(#Q)"/><path d="M35.43 43.735s-2.458-11.939-20.276-11.322c-.654.022-1.463.693-1.298 1.072 1.661 3.807 8.559 17.087 21.574 10.25z" fill="url(#R)"/><path d="M13.856 33.484c-.075-.172.051-.404.272-.608 10.245.4 21.302 10.858 21.302 10.858-13.015 6.837-19.913-6.443-21.574-10.25z" fill="url(#S)"/><path d="M13.856 33.484c-.108-.249.203-.622.614-.857l.202.319C22.153 44.987 35.43 43.735 35.43 43.735c-13.015 6.837-19.913-6.443-21.574-10.25z" fill="url(#T)"/><path d="M35.43 43.734s1.654-12.077 19.473-12.654c.654-.021 1.507.593 1.367.983-1.402 3.91-7.397 17.621-20.84 11.671z" fill="url(#U)"/><path d="M56.27 32.064c.063-.177-.078-.399-.312-.588C45.762 32.56 35.43 43.734 35.43 43.734c13.443 5.95 19.438-7.761 20.84-11.671z" fill="url(#V)"/><path d="M56.27 32.064c.092-.256-.244-.607-.67-.813l-.181.332c-6.658 12.514-19.99 12.153-19.99 12.153 13.443 5.95 19.438-7.761 20.84-11.671z" fill="url(#W)"/><defs><linearGradient id="A" x1="26.997" y1="48.111" x2="35.245" y2="55.918" xlink:href="#X"><stop stop-color="#62e49d"/><stop offset="1" stop-color="#b7d964"/></linearGradient><linearGradient id="B" x1="29.203" y1="52.399" x2="34.846" y2="53.125" xlink:href="#X"><stop stop-color="#72eba9" stop-opacity="0"/><stop offset="1" stop-color="#48b479"/></linearGradient><linearGradient id="C" x1="37.334" y1="59.733" x2="27.657" y2="54.944" xlink:href="#X"><stop stop-color="#96fbc4"/><stop offset="1" stop-color="#f9f586"/></linearGradient><linearGradient id="D" x1="42.576" y1="44.177" x2="35.96" y2="37.561" xlink:href="#X"><stop stop-color="#3ac9a0" stop-opacity="0"/><stop offset=".035" stop-color="#38c69d" stop-opacity=".035"/><stop offset=".417" stop-color="#23aa82" stop-opacity=".416"/><stop offset=".751" stop-color="#169971" stop-opacity=".753"/><stop offset="1" stop-color="#11936b"/></linearGradient><radialGradient id="E" cx="0" cy="0" r="1" gradientTransform="translate(34.0481 23.5911) scale(20.414)" xlink:href="#X"><stop stop-color="#ffa700"/><stop offset=".323" stop-color="#fca300"/><stop offset=".665" stop-color="#f39600"/><stop offset="1" stop-color="#e58200"/></radialGradient><linearGradient id="F" x1="35" y1="21.17" x2="35" y2="56.194" xlink:href="#X"><stop stop-color="#e58200" stop-opacity="0"/><stop offset=".04" stop-color="#e27f04" stop-opacity=".039"/><stop offset=".467" stop-color="#c15d2f" stop-opacity=".467"/><stop offset=".802" stop-color="#ad4949" stop-opacity=".8"/><stop offset="1" stop-color="#a64153"/></linearGradient><linearGradient id="G" x1="35" y1="29.01" x2="35" y2="-6.384" xlink:href="#X"><stop stop-color="#e58200" stop-opacity="0"/><stop offset=".04" stop-color="#e27f04" stop-opacity=".039"/><stop offset=".467" stop-color="#c15d2f" stop-opacity=".467"/><stop offset=".802" stop-color="#ad4949" stop-opacity=".8"/><stop offset="1" stop-color="#a64153"/></linearGradient><linearGradient id="H" x1="35" y1="24.859" x2="35" y2="36.179" xlink:href="#X"><stop stop-color="#e58200" stop-opacity="0"/><stop offset=".04" stop-color="#e27f04" stop-opacity=".039"/><stop offset=".467" stop-color="#c15d2f" stop-opacity=".467"/><stop offset=".802" stop-color="#ad4949" stop-opacity=".8"/><stop offset="1" stop-color="#a64153"/></linearGradient><radialGradient id="I" cx="0" cy="0" r="1" gradientTransform="translate(27.7073 18.9794) scale(27.4386)" xlink:href="#X"><stop stop-color="#ffc738"/><stop offset=".783" stop-color="#ffb417"/><stop offset="1" stop-color="#ffa700"/></radialGradient><radialGradient id="J" cx="0" cy="0" r="1" gradientTransform="translate(33.4429 24.2668) scale(17.1632)" xlink:href="#X"><stop stop-color="#fffcf8"/><stop offset=".949" stop-color="#fffcf8" stop-opacity=".051"/><stop offset="1" stop-color="#fffcf8" stop-opacity="0"/></radialGradient><radialGradient id="K" cx="0" cy="0" r="1" gradientTransform="translate(34.7071 22.433) scale(20.5128 22.3817)" xlink:href="#X"><stop stop-color="#ffa700"/><stop offset=".323" stop-color="#fca300"/><stop offset=".665" stop-color="#f39600"/><stop offset="1" stop-color="#e58200"/></radialGradient><radialGradient id="L" cx="0" cy="0" r="1" gradientTransform="translate(29.4627 19.3481) scale(20.9038 20.9038)" xlink:href="#X"><stop stop-color="#ffc738"/><stop offset=".284" stop-color="#ffc534"/><stop offset=".539" stop-color="#ffbf29"/><stop offset=".783" stop-color="#ffb417"/><stop offset="1" stop-color="#ffa700"/></radialGradient><linearGradient id="M" x1="40.853" y1="28.109" x2="27.556" y2="25.035" xlink:href="#X"><stop stop-color="#ffa700" stop-opacity="0"/><stop offset=".021" stop-color="#fea600" stop-opacity=".02"/><stop offset=".635" stop-color="#ec8c00" stop-opacity=".635"/><stop offset="1" stop-color="#e58200"/></linearGradient><linearGradient id="N" x1="32.387" y1="24.267" x2="37.203" y2="24.267" xlink:href="#X"><stop stop-color="#ffa700"/><stop offset=".323" stop-color="#fca300"/><stop offset=".665" stop-color="#f39600"/><stop offset="1" stop-color="#e58200"/></linearGradient><linearGradient id="O" x1="12.524" y1="56.633" x2="58.759" y2="63.721" xlink:href="#X"><stop offset=".382" stop-color="#3b414d"/><stop offset="1" stop-color="#546179"/></linearGradient><linearGradient id="P" x1="36.279" y1="47.769" x2="46.042" y2="60.964" xlink:href="#X"><stop stop-color="#62e49d"/><stop offset="1" stop-color="#b7d964"/></linearGradient><linearGradient id="Q" x1="49" y1="53.2" x2="36.496" y2="49.617" xlink:href="#X"><stop stop-color="#96fbc4" stop-opacity="0"/><stop offset="1" stop-color="#4fb87f"/></linearGradient><linearGradient id="R" x1="13.835" y1="39.024" x2="33.909" y2="46.195" xlink:href="#X"><stop stop-color="#96fbc4"/><stop offset="1" stop-color="#f9f586"/></linearGradient><linearGradient id="S" x1="19.596" y1="40.035" x2="35.046" y2="43.397" xlink:href="#X"><stop stop-color="#96fbc4" stop-opacity="0"/><stop offset="1" stop-color="#65e39f"/></linearGradient><linearGradient id="T" x1="19.596" y1="39.925" x2="35.072" y2="43.229" xlink:href="#X"><stop stop-color="#72eba9" stop-opacity="0"/><stop offset="1" stop-color="#48b479"/></linearGradient><linearGradient id="U" x1="57.4" y1="30.8" x2="33.786" y2="40.851" xlink:href="#X"><stop stop-color="#96fbc4"/><stop offset="1" stop-color="#f9f586"/></linearGradient><linearGradient id="V" x1="56" y1="32.667" x2="35.461" y2="32.676" xlink:href="#X"><stop stop-color="#96fbc4" stop-opacity="0"/><stop offset="1" stop-color="#65e39f"/></linearGradient><linearGradient id="W" x1="59.266" y1="34.067" x2="37.506" y2="32.897" xlink:href="#X"><stop stop-color="#96fbc4" stop-opacity="0"/><stop offset="1" stop-color="#4fb87f"/></linearGradient><linearGradient id="X" gradientUnits="userSpaceOnUse"/></defs></svg>