<svg width="70" height="70" viewBox="0 0 70 70" fill="none" xmlns="http://www.w3.org/2000/svg">
<path d="M63.7724 24.2504V62.9023C63.7724 66.8218 60.5947 69.9994 56.6747 69.9994H11.8972C8.72437 69.9994 6.15234 67.4279 6.15234 64.2551V24.251C6.15234 21.0781 8.72437 18.5061 11.8972 18.5061H58.0275C61.2003 18.5061 63.7724 21.0781 63.7724 24.2504Z" fill="url(#paint0_linear_14_23584)"/>
<path d="M58.2807 28.3892H12.2748C10.2176 28.3892 8.55029 26.7219 8.55029 24.6647C8.55029 22.6075 10.2176 20.9402 12.2748 20.9402H58.2807C60.3379 20.9402 62.0052 22.6075 62.0052 24.6647C62.0052 26.7219 60.3379 28.3892 58.2807 28.3892Z" fill="url(#paint1_linear_14_23584)"/>
<path d="M58.0275 18.5063H52.4744V53.4786H56.6747C60.5942 53.4786 63.7724 50.3004 63.7724 46.381V24.2507C63.7724 21.0784 61.2003 18.5063 58.0275 18.5063Z" fill="url(#paint2_linear_14_23584)"/>
<path d="M58.387 23.4243C58.387 36.3613 47.8992 46.8491 34.9621 46.8491C22.0251 46.8491 11.5378 36.3613 11.5378 23.4243C11.5378 10.4873 22.0251 0 34.9621 0C47.8992 0 58.387 10.4873 58.387 23.4243Z" fill="url(#paint3_radial_14_23584)"/>
<path d="M11.5378 23.4244C11.5378 31.785 15.9187 39.1214 22.5095 43.2662H47.4153C54.0056 39.1214 58.3864 31.785 58.3864 23.4244C58.3864 15.0637 54.0056 7.72787 47.4153 3.58252H22.5095C15.9187 7.72787 11.5378 15.0637 11.5378 23.4244Z" fill="url(#paint4_linear_14_23584)"/>
<path d="M11.5378 23.4242C11.5378 29.3886 13.7681 34.8312 17.4386 38.9664H52.4862C56.1562 34.8312 58.387 29.3886 58.387 23.4242C58.387 17.4599 56.1568 12.0173 52.4862 7.88208H17.4386C13.7681 12.0173 11.5378 17.4599 11.5378 23.4242Z" fill="url(#paint5_linear_14_23584)"/>
<path d="M11.5378 23.4242C11.5378 26.91 12.3005 30.2174 13.6661 33.1905H56.2588C57.6243 30.2174 58.387 26.91 58.387 23.4242C58.387 19.9384 57.6243 16.631 56.2588 13.6584H13.6661C12.3005 16.631 11.5378 19.9384 11.5378 23.4242Z" fill="url(#paint6_linear_14_23584)"/>
<path d="M11.5378 23.4242C11.5378 25.4418 11.7937 27.3997 12.2738 29.2678H57.651C58.1312 27.3997 58.387 25.4424 58.387 23.4242C58.387 21.4065 58.1312 19.4487 57.651 17.5811H12.2738C11.7937 19.4487 11.5378 21.4065 11.5378 23.4242Z" fill="url(#paint7_linear_14_23584)"/>
<path d="M33.102 0.0732422C21.035 1.02173 11.5378 11.1138 11.5378 23.4244C11.5378 35.7355 21.035 45.8276 33.102 46.7755C45.1696 45.8276 54.6667 35.7355 54.6667 23.4244C54.6667 11.1138 45.1696 1.02173 33.102 0.0732422Z" fill="url(#paint8_radial_14_23584)"/>
<path d="M34.3149 2.21737C33.5106 2.10788 32.694 2.10788 31.8897 2.21737C21.4462 3.63796 13.3975 12.5909 13.3975 23.4243C13.3975 34.2576 21.4462 43.2111 31.8897 44.6317C32.694 44.7412 33.5106 44.7412 34.3149 44.6317C44.7584 43.2111 52.8066 34.2576 52.8066 23.4243C52.8066 12.5909 44.7584 3.63796 34.3149 2.21737Z" fill="url(#paint9_radial_14_23584)"/>
<path d="M48.6711 23.4244C48.6711 13.9854 41.6579 6.33398 33.0067 6.33398C24.356 6.33398 17.3428 13.9854 17.3428 23.4244C17.3428 32.8633 24.356 40.5153 33.0067 40.5153C41.6579 40.5153 48.6711 32.8633 48.6711 23.4244Z" fill="url(#paint10_radial_14_23584)"/>
<path d="M37.3077 6.98709C35.3578 6.38093 33.2745 6.38093 31.3246 6.98709C24.7648 9.02612 19.9609 15.6127 19.9609 23.4243C19.9609 31.3887 24.9544 38.0799 31.7113 39.9764C33.4133 40.4538 35.219 40.4538 36.9205 39.9764C43.6779 38.0799 48.6713 31.3887 48.6713 23.4243C48.6713 15.6127 43.8675 9.02612 37.3077 6.98709Z" fill="url(#paint11_radial_14_23584)"/>
<path d="M48.4925 26.0123L38.1233 15.6435C37.9353 15.3151 37.5438 15.0443 36.9494 14.8307C36.339 14.6112 35.6885 14.4622 34.999 14.38L34.089 13.5682C34.0708 13.44 33.9955 13.3236 33.8562 13.2205C33.6954 13.1025 33.5224 13.0432 33.3365 13.0432C33.1341 13.0432 32.96 13.1025 32.8169 13.2205C32.6732 13.3391 32.6011 13.4742 32.6011 13.6264V14.3618C31.2323 14.5135 30.0873 14.9701 29.1666 15.7306C28.2453 16.4911 27.785 17.6057 27.785 19.0738C27.785 19.5966 27.8437 20.073 27.9623 20.5029C28.0803 20.9334 28.2747 21.3083 28.5455 21.6287C28.8157 21.9492 29.0737 22.2237 29.3188 22.4512C29.3316 22.4635 29.346 22.4752 29.3594 22.487L32.6017 25.7367V29.9771C31.8524 29.9269 31.1928 29.733 30.6224 29.3955C30.0521 29.0585 29.604 28.7424 29.2777 28.447C28.9514 28.1517 28.6881 28.0043 28.4878 28.0043C28.185 28.0043 27.9164 28.1645 27.6814 28.485C27.4459 28.8054 27.3284 29.1258 27.3284 29.4463C27.3284 29.9712 27.6333 30.4887 28.24 30.9988L37.1502 39.909C43.0489 38.1482 47.5585 32.7216 48.4925 26.0123Z" fill="url(#paint12_linear_14_23584)"/>
<path d="M27.3289 29.4463C27.3289 29.1258 27.4458 28.8054 27.6813 28.485C27.9163 28.1645 28.185 28.0043 28.4878 28.0043C28.688 28.0043 28.9513 28.1517 29.2782 28.447C29.6039 28.7424 30.0526 29.0585 30.6224 29.3955C31.1933 29.733 31.8523 29.9269 32.6016 29.9771V24.0325C32.0948 23.8467 31.7055 23.6993 31.4358 23.5892C31.165 23.4798 30.8056 23.3195 30.358 23.1086C29.9105 22.8982 29.5639 22.6787 29.3188 22.4512C29.0736 22.2231 28.8157 21.9492 28.5454 21.6287C28.2752 21.3083 28.0808 20.9328 27.9622 20.5029C27.8442 20.073 27.7849 19.5961 27.7849 19.0733C27.7849 17.6057 28.2453 16.4911 29.1665 15.7301C30.0878 14.9696 31.2328 14.5135 32.6016 14.3613V13.6264C32.6016 13.4742 32.6732 13.3391 32.8168 13.2205C32.9605 13.1025 33.1341 13.0432 33.337 13.0432C33.5223 13.0432 33.6959 13.1025 33.8566 13.2205C34.0169 13.3391 34.0975 13.4742 34.0975 13.6264V14.3105C35.1282 14.3447 36.0789 14.5177 36.9494 14.8302C37.8199 15.1431 38.2551 15.5784 38.2551 16.1359C38.2551 16.4404 38.1526 16.757 37.9481 17.0866C37.7435 17.4161 37.4706 17.5806 37.1299 17.5806C36.9953 17.5806 36.6247 17.4374 36.0196 17.1496C35.414 16.8628 34.7731 16.6935 34.0975 16.6428V21.7804C34.7699 22.0335 35.3285 22.2739 35.7739 22.5014C36.2188 22.7294 36.6898 23.0456 37.186 23.4504C37.6816 23.8552 38.0554 24.3652 38.3075 24.9805C38.5596 25.5962 38.6856 26.3177 38.6856 27.1439C38.6856 28.6537 38.2738 29.8537 37.4503 30.7446C36.6268 31.6348 35.509 32.1817 34.0975 32.3852V33.2322C34.0975 33.3817 34.0169 33.5142 33.8566 33.6306C33.6959 33.747 33.5223 33.8052 33.337 33.8052C33.1341 33.8052 32.9605 33.747 32.8168 33.6311C32.6732 33.5147 32.6016 33.3817 32.6016 33.2327V32.4615C31.1313 32.4445 29.8849 32.108 28.8621 31.4522C27.8394 30.7969 27.3289 30.1277 27.3289 29.4463ZM30.2945 18.8206C30.2945 19.4786 30.4996 19.9806 30.9092 20.3262C31.3188 20.6717 31.9335 20.9964 32.7533 21.2997V16.6914C31.1143 16.8943 30.2945 17.6041 30.2945 18.8206ZM33.9453 29.9269C35.4321 29.6572 36.1761 28.8219 36.1761 27.4222C36.1761 26.6804 35.9817 26.0983 35.5929 25.6769C35.2041 25.2555 34.6551 24.8929 33.9453 24.589V29.9269Z" fill="url(#paint13_linear_14_23584)"/>
<path d="M63.7726 35.3108V62.9023C63.7726 66.8218 60.5945 69.9999 56.675 69.9999H52.4741V29.3496H55.9588C57.2491 29.3496 58.4102 29.8954 59.2283 30.7665L63.7726 35.3108Z" fill="url(#paint14_linear_14_23584)"/>
<path d="M60.4441 33.8352V65.0258C60.4441 67.7724 58.2171 69.9995 55.4699 69.9995H11.1266C8.3799 69.9995 6.15234 67.7735 6.15234 65.0258V24.2505C6.15234 27.0666 8.43544 29.3497 11.2531 29.3497H55.9586C58.4361 29.3497 60.4441 31.3583 60.4441 33.8352Z" fill="url(#paint15_linear_14_23584)"/>
<path d="M23.6929 69.9995H11.1265C8.37985 69.9995 6.15283 67.773 6.15283 65.0258V24.25C6.15283 27.0666 8.43646 29.3497 11.2525 29.3497H23.6934V69.9995H23.6929Z" fill="url(#paint16_linear_14_23584)"/>
<path d="M59.2617 44.0582H46.2499C44.7214 44.0582 43.4824 45.2972 43.4824 46.8257V52.3051C43.4824 53.174 43.8835 53.9484 44.5099 54.4558L59.478 69.4238C62.0035 68.3365 63.7723 65.8264 63.7723 62.9024V39.5481C63.7723 42.0389 61.7525 44.0582 59.2617 44.0582Z" fill="url(#paint17_linear_14_23584)"/>
<path d="M59.2617 55.0726H46.2499C44.7214 55.0726 43.4824 53.8336 43.4824 52.3051V46.8257C43.4824 45.2972 44.7214 44.0582 46.2499 44.0582H59.2617C61.7525 44.0582 63.7723 42.0389 63.7723 39.5481V50.5625C63.7723 53.0533 61.7525 55.0726 59.2617 55.0726Z" fill="url(#paint18_linear_14_23584)"/>
<path d="M51.4991 47.7459C50.9303 47.1339 50.1207 46.7483 49.2192 46.7483C47.5001 46.7483 46.1062 48.1422 46.1062 49.8613C46.1062 50.7628 46.4918 51.5724 47.1044 52.1407L50.0363 55.0726H58.8253L51.4991 47.7459Z" fill="url(#paint19_linear_14_23584)"/>
<path d="M51.96 49.7798C51.96 51.4989 50.5661 52.8928 48.8464 52.8928C47.1273 52.8928 45.7334 51.4989 45.7334 49.7798C45.7334 48.0606 47.1273 46.6667 48.8464 46.6667C50.5661 46.6667 51.96 48.0606 51.96 49.7798Z" fill="url(#paint20_linear_14_23584)"/>
<path d="M59.2618 44.0582H54.2368V55.0726H59.2618C61.7526 55.0726 63.7724 53.0533 63.7724 50.5625V39.5481C63.7724 42.0389 61.7526 44.0582 59.2618 44.0582Z" fill="url(#paint21_linear_14_23584)"/>
<path d="M6.15234 59.2969V64.2551C6.15234 67.4274 8.72437 69.9994 11.8972 69.9994H56.6747C60.5947 69.9994 63.7724 66.8217 63.7724 62.9023V59.2969H6.15234Z" fill="url(#paint22_linear_14_23584)"/>
<defs>
<linearGradient id="paint0_linear_14_23584" x1="6.55669" y1="27.454" x2="68.8324" y2="50.8655" gradientUnits="userSpaceOnUse">
<stop stop-color="#4A5FEF"/>
<stop offset="1" stop-color="#8494FF"/>
</linearGradient>
<linearGradient id="paint1_linear_14_23584" x1="35.398" y1="25.4507" x2="33.195" y2="11.0465" gradientUnits="userSpaceOnUse">
<stop stop-color="#3351C7" stop-opacity="0"/>
<stop offset="0.5838" stop-color="#2841A3" stop-opacity="0.584314"/>
<stop offset="1" stop-color="#091A5B"/>
</linearGradient>
<linearGradient id="paint2_linear_14_23584" x1="52.5536" y1="24.5834" x2="66.328" y2="26.0784" gradientUnits="userSpaceOnUse">
<stop stop-color="#4A5FEF"/>
<stop offset="1" stop-color="#8494FF"/>
</linearGradient>
<radialGradient id="paint3_radial_14_23584" cx="0" cy="0" r="1" gradientUnits="userSpaceOnUse" gradientTransform="translate(33.8249 22.617) scale(24.3974)">
<stop stop-color="#FFA700"/>
<stop offset="0.3227" stop-color="#FCA300"/>
<stop offset="0.6649" stop-color="#F39600"/>
<stop offset="1" stop-color="#E58200"/>
</radialGradient>
<linearGradient id="paint4_linear_14_23584" x1="34.9624" y1="19.7236" x2="34.9624" y2="61.582" gradientUnits="userSpaceOnUse">
<stop stop-color="#E58200" stop-opacity="0"/>
<stop offset="0.0396" stop-color="#E27F04" stop-opacity="0.039216"/>
<stop offset="0.4671" stop-color="#C15D2F" stop-opacity="0.466667"/>
<stop offset="0.8016" stop-color="#AD4949" stop-opacity="0.8"/>
<stop offset="1" stop-color="#A64153"/>
</linearGradient>
<linearGradient id="paint5_linear_14_23584" x1="34.9624" y1="29.0928" x2="34.9624" y2="-13.2068" gradientUnits="userSpaceOnUse">
<stop stop-color="#E58200" stop-opacity="0"/>
<stop offset="0.0396" stop-color="#E27F04" stop-opacity="0.039216"/>
<stop offset="0.4671" stop-color="#C15D2F" stop-opacity="0.466667"/>
<stop offset="0.8016" stop-color="#AD4949" stop-opacity="0.8"/>
<stop offset="1" stop-color="#A64153"/>
</linearGradient>
<linearGradient id="paint6_linear_14_23584" x1="34.9624" y1="24.1326" x2="34.9624" y2="37.6607" gradientUnits="userSpaceOnUse">
<stop stop-color="#E58200" stop-opacity="0"/>
<stop offset="0.0396" stop-color="#E27F04" stop-opacity="0.039216"/>
<stop offset="0.4671" stop-color="#C15D2F" stop-opacity="0.466667"/>
<stop offset="0.8016" stop-color="#AD4949" stop-opacity="0.8"/>
<stop offset="1" stop-color="#A64153"/>
</linearGradient>
<linearGradient id="paint7_linear_14_23584" x1="34.9624" y1="28.5416" x2="34.9624" y2="5.50533" gradientUnits="userSpaceOnUse">
<stop stop-color="#E58200" stop-opacity="0"/>
<stop offset="0.0396" stop-color="#E27F04" stop-opacity="0.039216"/>
<stop offset="0.4671" stop-color="#C15D2F" stop-opacity="0.466667"/>
<stop offset="0.8016" stop-color="#AD4949" stop-opacity="0.8"/>
<stop offset="1" stop-color="#A64153"/>
</linearGradient>
<radialGradient id="paint8_radial_14_23584" cx="0" cy="0" r="1" gradientUnits="userSpaceOnUse" gradientTransform="translate(26.2468 17.1058) scale(32.7928)">
<stop stop-color="#FFC738"/>
<stop offset="0.2837" stop-color="#FFC534"/>
<stop offset="0.5391" stop-color="#FFBF29"/>
<stop offset="0.7827" stop-color="#FFB417"/>
<stop offset="1" stop-color="#FFA700"/>
</radialGradient>
<radialGradient id="paint9_radial_14_23584" cx="0" cy="0" r="1" gradientUnits="userSpaceOnUse" gradientTransform="translate(33.1023 23.4244) scale(20.5123 20.5123)">
<stop stop-color="#FFFCF8"/>
<stop offset="0.9485" stop-color="#FFFCF8" stop-opacity="0.05098"/>
<stop offset="1" stop-color="#FFFCF8" stop-opacity="0"/>
</radialGradient>
<radialGradient id="paint10_radial_14_23584" cx="0" cy="0" r="1" gradientUnits="userSpaceOnUse" gradientTransform="translate(34.6104 21.233) scale(24.5155 26.749)">
<stop stop-color="#FFA700"/>
<stop offset="0.3227" stop-color="#FCA300"/>
<stop offset="0.6649" stop-color="#F39600"/>
<stop offset="1" stop-color="#E58200"/>
</radialGradient>
<radialGradient id="paint11_radial_14_23584" cx="0" cy="0" r="1" gradientUnits="userSpaceOnUse" gradientTransform="translate(28.3453 17.5462) scale(24.9828)">
<stop stop-color="#FFC738"/>
<stop offset="0.2837" stop-color="#FFC534"/>
<stop offset="0.5391" stop-color="#FFBF29"/>
<stop offset="0.7827" stop-color="#FFB417"/>
<stop offset="1" stop-color="#FFA700"/>
</radialGradient>
<linearGradient id="paint12_linear_14_23584" x1="41.9566" y1="28.0172" x2="26.0647" y2="24.3427" gradientUnits="userSpaceOnUse">
<stop stop-color="#FFA700" stop-opacity="0"/>
<stop offset="0.0206" stop-color="#FEA600" stop-opacity="0.019608"/>
<stop offset="0.6348" stop-color="#EC8C00" stop-opacity="0.635294"/>
<stop offset="1" stop-color="#E58200"/>
</linearGradient>
<linearGradient id="paint13_linear_14_23584" x1="31.8391" y1="23.4243" x2="37.5942" y2="23.4243" gradientUnits="userSpaceOnUse">
<stop stop-color="#FFA700"/>
<stop offset="0.3227" stop-color="#FCA300"/>
<stop offset="0.6649" stop-color="#F39600"/>
<stop offset="1" stop-color="#E58200"/>
</linearGradient>
<linearGradient id="paint14_linear_14_23584" x1="69.8588" y1="50.8806" x2="55.2844" y2="49.7508" gradientUnits="userSpaceOnUse">
<stop stop-color="#3351C7" stop-opacity="0"/>
<stop offset="0.5838" stop-color="#3351C7" stop-opacity="0.584314"/>
<stop offset="1" stop-color="#3351C7"/>
</linearGradient>
<linearGradient id="paint15_linear_14_23584" x1="6.53333" y1="32.2002" x2="64.3192" y2="55.2391" gradientUnits="userSpaceOnUse">
<stop stop-color="#5558E1"/>
<stop offset="1" stop-color="#8494FF"/>
</linearGradient>
<linearGradient id="paint16_linear_14_23584" x1="11.2928" y1="47.1249" x2="1.33275" y2="47.1249" gradientUnits="userSpaceOnUse">
<stop stop-color="#6366F1" stop-opacity="0"/>
<stop offset="0.5838" stop-color="#6366F1" stop-opacity="0.584314"/>
<stop offset="1" stop-color="#6366F1"/>
</linearGradient>
<linearGradient id="paint17_linear_14_23584" x1="59.6554" y1="64.6334" x2="53.8583" y2="46.8556" gradientUnits="userSpaceOnUse">
<stop stop-color="#3351C7" stop-opacity="0"/>
<stop offset="0.5838" stop-color="#3351C7" stop-opacity="0.584314"/>
<stop offset="1" stop-color="#3351C7"/>
</linearGradient>
<linearGradient id="paint18_linear_14_23584" x1="52.8674" y1="44.5919" x2="58.1712" y2="56.0413" gradientUnits="userSpaceOnUse">
<stop stop-color="#FFFCF8"/>
<stop offset="0.1875" stop-color="#FAF8F6"/>
<stop offset="0.4041" stop-color="#ECEEF2"/>
<stop offset="0.6353" stop-color="#D5DCEA"/>
<stop offset="0.875" stop-color="#B5C4DF"/>
<stop offset="1" stop-color="#A1B5D8"/>
</linearGradient>
<linearGradient id="paint19_linear_14_23584" x1="54.5999" y1="55.2417" x2="46.7446" y2="47.3864" gradientUnits="userSpaceOnUse">
<stop stop-color="#A1B5D8" stop-opacity="0"/>
<stop offset="0.0343" stop-color="#9FB3D5" stop-opacity="0.035294"/>
<stop offset="0.4515" stop-color="#8898AF" stop-opacity="0.45098"/>
<stop offset="0.788" stop-color="#798898" stop-opacity="0.788235"/>
<stop offset="1" stop-color="#748290"/>
</linearGradient>
<linearGradient id="paint20_linear_14_23584" x1="45.7334" y1="47.0818" x2="52.1504" y2="47.3894" gradientUnits="userSpaceOnUse">
<stop offset="0.382417" stop-color="#3B414D"/>
<stop offset="1" stop-color="#546179"/>
</linearGradient>
<linearGradient id="paint21_linear_14_23584" x1="60.0348" y1="47.3102" x2="64.9644" y2="47.3102" gradientUnits="userSpaceOnUse">
<stop stop-color="#A1B5D8" stop-opacity="0"/>
<stop offset="0.0343" stop-color="#9FB3D5" stop-opacity="0.035294"/>
<stop offset="0.4515" stop-color="#5878B6" stop-opacity="0.45098"/>
<stop offset="0.788" stop-color="#6482BD" stop-opacity="0.788235"/>
<stop offset="1" stop-color="#4F6FAE"/>
</linearGradient>
<linearGradient id="paint22_linear_14_23584" x1="34.9623" y1="65.942" x2="34.9623" y2="71.0227" gradientUnits="userSpaceOnUse">
<stop stop-color="#6366F1" stop-opacity="0"/>
<stop offset="0.5838" stop-color="#6366F1" stop-opacity="0.584314"/>
<stop offset="1" stop-color="#6366F1"/>
</linearGradient>
</defs>
</svg>
