<svg width="70" height="70" viewBox="0 0 70 70" fill="none" xmlns="http://www.w3.org/2000/svg">
<path d="M62.866 70.0001H7.13367C4.89532 70.0001 3.08081 68.1856 3.08081 65.9473V28.7474C3.08081 26.5091 4.89532 24.6946 7.13367 24.6946H62.8659C65.1043 24.6946 66.9188 26.5091 66.9188 28.7474V65.9474C66.9188 68.1856 65.1043 70.0001 62.866 70.0001Z" fill="url(#paint0_linear_14_23612)"/>
<path d="M26.5545 55.253H12.7064C11.3701 55.253 10.2869 54.1698 10.2869 52.8335V38.9854C10.2869 37.6491 11.3702 36.5659 12.7064 36.5659H26.5545C27.8908 36.5659 28.974 37.6493 28.974 38.9854V52.8335C28.9741 54.1698 27.8908 55.253 26.5545 55.253Z" fill="url(#paint1_linear_14_23612)"/>
<path d="M25.3914 53.4964H14.1055C13.0164 53.4964 12.1335 52.6136 12.1335 51.5245V40.2385C12.1335 39.1494 13.0164 38.2666 14.1055 38.2666H25.3914C26.4805 38.2666 27.3633 39.1494 27.3633 40.2385V51.5245C27.3633 52.6136 26.4805 53.4964 25.3914 53.4964Z" fill="url(#paint2_linear_14_23612)"/>
<path d="M25.4353 42.6055C25.4353 42.237 25.7351 41.9372 26.1036 41.9372H27.3634V40.6226H26.1036C25.0103 40.6226 24.1207 41.5121 24.1207 42.6055C24.1207 42.962 23.8396 43.2513 23.488 43.2702C23.0913 42.457 22.2583 41.8938 21.2942 41.8938H20.4058V38.2666H19.0911V41.8938H18.2027C17.2386 41.8938 16.4056 42.4569 16.0089 43.2702C15.6573 43.2513 15.3763 42.9618 15.3763 42.6055C15.3763 41.5121 14.4868 40.6226 13.3934 40.6226H12.1335V41.9372H13.3934C13.7619 41.9372 14.0617 42.237 14.0617 42.6055C14.0617 43.6022 14.8018 44.4273 15.7608 44.5658V45.2243H12.1337V46.539H15.7609V47.1974C14.8019 47.3359 14.0618 48.1608 14.0618 49.1576C14.0618 49.5262 13.7621 49.8259 13.3935 49.8259H12.1337V51.1406H13.3935C14.4869 51.1406 15.3765 50.251 15.3765 49.1576C15.3765 48.8013 15.6574 48.5119 16.0091 48.4929C16.4057 49.3061 17.2387 49.8693 18.2028 49.8693H19.0913V53.4965H20.4059V49.8692H21.2943C22.2584 49.8692 23.0913 49.3062 23.4881 48.4928C23.8397 48.5117 24.1208 48.8012 24.1208 49.1575C24.1208 50.2509 25.0104 51.1404 26.1038 51.1404H27.3635V49.8258H26.1038C25.7352 49.8258 25.4355 49.526 25.4355 49.1575C25.4355 48.1608 24.6954 47.3357 23.7363 47.1972V46.5388H27.3635V45.2242H23.7363V44.5656C24.6953 44.4273 25.4353 43.6022 25.4353 42.6055ZM22.4216 47.4273C22.4216 48.0489 21.916 48.5545 21.2943 48.5545H18.2028C17.5812 48.5545 17.0755 48.0489 17.0755 47.4273V44.3357C17.0755 43.7141 17.5812 43.2085 18.2028 43.2085H21.2943C21.9158 43.2085 22.4216 43.7141 22.4216 44.3357V47.4273Z" fill="url(#paint3_linear_14_23612)"/>
<path d="M42.3021 41.3215H33.3401C32.6833 41.3215 32.1509 40.7891 32.1509 40.1323V37.7541C32.1509 37.0974 32.6833 36.5649 33.3401 36.5649H42.3021C42.9589 36.5649 43.4913 37.0974 43.4913 37.7541V40.1323C43.4912 40.7891 42.9587 41.3215 42.3021 41.3215Z" fill="#B6B7FF"/>
<path d="M58.5234 41.3215H47.3579C46.7011 41.3215 46.1687 40.7891 46.1687 40.1323V37.7541C46.1687 37.0974 46.7011 36.5649 47.3579 36.5649H58.5234C59.1802 36.5649 59.7126 37.0974 59.7126 37.7541V40.1323C59.7126 40.7891 59.1802 41.3215 58.5234 41.3215Z" fill="#B6B7FF"/>
<path d="M54.0429 48.4858H58.524C59.1808 48.4858 59.7132 47.9534 59.7132 47.2966V44.9184C59.7132 44.2617 59.1808 43.7292 58.524 43.7292H54.0429C53.3862 43.7292 52.8538 44.2617 52.8538 44.9184V47.2966C52.8538 47.9535 53.3862 48.4858 54.0429 48.4858Z" fill="#B6B7FF"/>
<path d="M33.3391 48.4858H48.9856C49.6424 48.4858 50.1748 47.9534 50.1748 47.2966V44.9184C50.1748 44.2617 49.6424 43.7292 48.9856 43.7292H33.3391C32.6823 43.7292 32.1499 44.2617 32.1499 44.9184V47.2966C32.1499 47.9535 32.6823 48.4858 33.3391 48.4858Z" fill="#B6B7FF"/>
<path d="M20.4381 65.2893H11.476C10.8193 65.2893 10.2869 64.7569 10.2869 64.1001V61.7219C10.2869 61.0651 10.8193 60.5327 11.476 60.5327H20.4381C21.0949 60.5327 21.6273 61.0651 21.6273 61.7219V64.1001C21.6273 64.757 21.0949 65.2893 20.4381 65.2893Z" fill="#B6B7FF"/>
<path d="M36.6604 65.2893H25.4948C24.8381 65.2893 24.3057 64.7569 24.3057 64.1001V61.7219C24.3057 61.0651 24.8381 60.5327 25.4948 60.5327H36.6604C37.3172 60.5327 37.8496 61.0651 37.8496 61.7219V64.1001C37.8496 64.757 37.3172 65.2893 36.6604 65.2893Z" fill="#B6B7FF"/>
<path d="M51.3376 65.2895C53.3643 65.2895 55.0073 63.6465 55.0073 61.6198C55.0073 59.5932 53.3643 57.9502 51.3376 57.9502C49.3109 57.9502 47.668 59.5932 47.668 61.6198C47.668 63.6465 49.3109 65.2895 51.3376 65.2895Z" fill="url(#paint4_linear_14_23612)"/>
<path d="M56.0434 65.2895C58.0701 65.2895 59.7131 63.6465 59.7131 61.6198C59.7131 59.5932 58.0701 57.9502 56.0434 57.9502C54.0167 57.9502 52.3738 59.5932 52.3738 61.6198C52.3738 63.6465 54.0167 65.2895 56.0434 65.2895Z" fill="url(#paint5_linear_14_23612)"/>
<path d="M66.9188 65.9473V43.6666L47.948 24.6958H22.3267V30.113C22.3267 31.0279 22.4916 31.8401 23.1711 32.35L60.8214 70.0002H62.8661C65.1043 70.0002 66.9188 68.1857 66.9188 65.9473Z" fill="url(#paint6_linear_14_23612)"/>
<path d="M45.5962 12.7014H41.5976V11.0109C41.5976 7.14426 38.4518 3.99865 34.5853 3.99865C30.7187 3.99865 27.5731 7.14439 27.5731 11.0109V12.7014H23.5745V11.0109C23.5745 4.93939 28.5139 0 34.5853 0C40.6567 0 45.5962 4.93939 45.5962 11.0109V12.7014Z" fill="url(#paint7_linear_14_23612)"/>
<path d="M34.5852 2.16504C29.5486 2.16504 25.4512 6.26251 25.4512 11.2991V12.7014H27.573V11.0108C27.573 7.14424 30.7187 3.99863 34.5852 3.99863C38.4518 3.99863 41.5974 7.14437 41.5974 11.0108V12.7014H43.7192V11.2989C43.7191 6.26251 39.6216 2.16504 34.5852 2.16504Z" fill="url(#paint8_linear_14_23612)"/>
<path d="M45.153 32.9077H24.8472C23.3035 32.9077 22.052 31.6564 22.052 30.1125V14.575C22.052 13.0313 23.3035 11.7798 24.8472 11.7798H45.153C46.6967 11.7798 47.9482 13.0313 47.9482 14.575V30.1126C47.9482 31.6562 46.6967 32.9077 45.153 32.9077Z" fill="url(#paint9_linear_14_23612)"/>
<path d="M39.9635 20.3523C39.9635 17.6109 37.7411 15.3884 34.9997 15.3884C32.2583 15.3884 30.0359 17.6109 30.0359 20.3523C30.0359 22.293 31.1504 23.9725 32.7736 24.7887V27.0729C32.7736 28.3023 33.7702 29.2991 34.9997 29.2991C36.2291 29.2991 37.2259 28.3025 37.2259 27.0729V24.7887C38.8492 23.9725 39.9635 22.293 39.9635 20.3523Z" fill="url(#paint10_linear_14_23612)"/>
<path d="M35.0002 28.0084C34.4842 28.0084 34.0645 27.5887 34.0645 27.0728V23.9929L33.3536 23.6355C32.1034 23.0068 31.3267 21.7488 31.3267 20.3521C31.3267 18.3266 32.9745 16.6787 35 16.6787C37.0255 16.6787 38.6734 18.3266 38.6734 20.3521C38.6734 21.7488 37.8966 23.007 36.6464 23.6355L35.9355 23.9929V27.0728C35.9358 27.5887 35.5161 28.0084 35.0002 28.0084Z" fill="url(#paint11_linear_14_23612)"/>
<path d="M22.052 25.8821V30.1124C22.052 31.6561 23.3034 32.9076 24.8472 32.9076H45.153C46.6967 32.9076 47.9482 31.6563 47.9482 30.1124V25.8821H22.052Z" fill="url(#paint12_linear_14_23612)"/>
<path d="M3.08081 60.2549V65.9471C3.08081 68.1855 4.89532 70 7.13367 70H62.8659C65.1042 70 66.9188 68.1855 66.9188 65.9471V60.2549H3.08081Z" fill="url(#paint13_linear_14_23612)"/>
<defs>
<linearGradient id="paint0_linear_14_23612" x1="3.52879" y1="32.5673" x2="67.8596" y2="63.0205" gradientUnits="userSpaceOnUse">
<stop stop-color="#5E62F1"/>
<stop offset="1" stop-color="#8A8DFF"/>
</linearGradient>
<linearGradient id="paint1_linear_14_23612" x1="10.717" y1="36.9959" x2="24.3949" y2="50.6739" gradientUnits="userSpaceOnUse">
<stop stop-color="#F2F5F9"/>
<stop offset="1" stop-color="#F2F5F9"/>
</linearGradient>
<linearGradient id="paint2_linear_14_23612" x1="26.7696" y1="52.9026" x2="12.5448" y2="38.6778" gradientUnits="userSpaceOnUse">
<stop stop-color="#EDF5FF"/>
<stop offset="1" stop-color="#DBEDFE"/>
</linearGradient>
<linearGradient id="paint3_linear_14_23612" x1="19.7486" y1="56.3207" x2="19.7486" y2="35.7452" gradientUnits="userSpaceOnUse">
<stop stop-color="#BBDEFE" stop-opacity="0"/>
<stop offset="1" stop-color="#ADD8FF"/>
</linearGradient>
<linearGradient id="paint4_linear_14_23612" x1="48.8971" y1="59.1793" x2="53.4201" y2="63.7023" gradientUnits="userSpaceOnUse">
<stop stop-color="#FFDA2D"/>
<stop offset="1" stop-color="#FDBF00"/>
</linearGradient>
<linearGradient id="paint5_linear_14_23612" x1="59.4269" y1="65.0034" x2="52.5719" y2="58.1484" gradientUnits="userSpaceOnUse">
<stop stop-color="#EDF5FF"/>
<stop offset="1" stop-color="#DBEDFE"/>
</linearGradient>
<linearGradient id="paint6_linear_14_23612" x1="47.0686" y1="53.8855" x2="40.074" y2="5.88378" gradientUnits="userSpaceOnUse">
<stop stop-color="#6366F1" stop-opacity="0"/>
<stop offset="1" stop-color="#5F62ED"/>
</linearGradient>
<linearGradient id="paint7_linear_14_23612" x1="28.2675" y1="3.26159" x2="38.5701" y2="13.5641" gradientUnits="userSpaceOnUse">
<stop stop-color="#EDF5FF"/>
<stop offset="1" stop-color="#B5DBFF"/>
</linearGradient>
<linearGradient id="paint8_linear_14_23612" x1="34.5852" y1="10.6718" x2="34.5852" y2="-14.0313" gradientUnits="userSpaceOnUse">
<stop stop-color="#B5DBFF" stop-opacity="0"/>
<stop offset="0.2428" stop-color="#93CEF6" stop-opacity="0.243"/>
<stop offset="0.5763" stop-color="#6ABFEC" stop-opacity="0.576"/>
<stop offset="0.8403" stop-color="#51B5E5" stop-opacity="0.84"/>
<stop offset="1" stop-color="#48B2E3"/>
</linearGradient>
<linearGradient id="paint9_linear_14_23612" x1="28.1548" y1="15.4983" x2="39.6315" y2="26.9751" gradientUnits="userSpaceOnUse">
<stop stop-color="#FFDA2D"/>
<stop offset="1" stop-color="#FDBF00"/>
</linearGradient>
<linearGradient id="paint10_linear_14_23612" x1="40.0168" y1="26.7936" x2="28.5686" y2="15.3455" gradientUnits="userSpaceOnUse">
<stop stop-color="#FFDA2D"/>
<stop offset="1" stop-color="#FDBF00"/>
</linearGradient>
<linearGradient id="paint11_linear_14_23612" x1="31.3267" y1="17.434" x2="38.9081" y2="17.6696" gradientUnits="userSpaceOnUse">
<stop offset="0.382417" stop-color="#3B414D"/>
<stop offset="1" stop-color="#546179"/>
</linearGradient>
<linearGradient id="paint12_linear_14_23612" x1="35.0001" y1="29.5781" x2="35.0001" y2="33.0349" gradientUnits="userSpaceOnUse">
<stop stop-color="#FF9100" stop-opacity="0"/>
<stop offset="1" stop-color="#FF9100"/>
</linearGradient>
<linearGradient id="paint13_linear_14_23612" x1="34.9997" y1="60.6666" x2="34.9997" y2="70.062" gradientUnits="userSpaceOnUse">
<stop stop-color="#6366F1" stop-opacity="0"/>
<stop offset="0.710073" stop-color="#5B5EE7" stop-opacity="0.799"/>
<stop offset="1" stop-color="#4E51DA"/>
</linearGradient>
</defs>
</svg>
