<svg width="71" height="70" viewBox="0 0 71 70" fill="none" xmlns="http://www.w3.org/2000/svg">
<path d="M39.4894 43.8033L30.9204 37.3968L43.1813 27.7576L49.6786 34.3345L49.5809 34.4306L43.1696 27.9413L31.1458 37.3941L39.5716 43.6933L39.4894 43.8033Z" fill="url(#paint0_radial_14_23683)"/>
<g clip-path="url(#clip0_14_23683)">
<path d="M70.9999 49.0239C70.9999 41.0262 64.1115 34.5422 55.6144 34.5422C47.1174 34.5422 40.2295 41.0262 40.2295 49.0239C40.2295 57.0221 47.1174 63.5055 55.6144 63.5055C56.0092 63.5055 56.3998 63.4913 56.7867 63.4639C57.2913 63.4281 57.7855 63.622 58.1429 63.981L59.8135 65.656C60.5469 66.3907 61.8001 65.8705 61.8001 64.8306V63.4159C61.8001 62.7429 62.188 62.1357 62.7894 61.8368C67.6719 59.4097 70.9999 54.5828 70.9999 49.0239Z" fill="url(#paint1_linear_14_23683)"/>
<path d="M46.8164 54.3469C46.8164 53.7946 47.2641 53.3469 47.8164 53.3469H63.4134C63.9657 53.3469 64.4134 53.7946 64.4134 54.3469V54.7683C64.4134 55.3205 63.9657 55.7683 63.4134 55.7683H47.8164C47.2641 55.7683 46.8164 55.3205 46.8164 54.7683V54.3469Z" fill="white" fill-opacity="0.5"/>
<path d="M47.1143 45.5811C47.1143 45.0288 47.562 44.5811 48.1143 44.5811H63.7112C64.2635 44.5811 64.7112 45.0288 64.7112 45.5811V47.7633C64.7112 48.3156 64.2635 48.7633 63.7112 48.7633H48.1143C47.562 48.7633 47.1143 48.3156 47.1143 47.7633V45.5811Z" fill="white" fill-opacity="0.5"/>
<path d="M21 53.9593C21 50.1217 24.3044 47.011 28.3815 47.011C32.4582 47.011 35.7631 50.1217 35.7631 53.9593C35.7631 57.7969 32.4582 60.9076 28.3815 60.9076C28.1923 60.9076 28.0046 60.9008 27.8191 60.8876C27.5773 60.8702 27.3402 60.9635 27.1683 61.1353L26.3671 61.9391C26.0155 62.2917 25.4136 62.0419 25.4136 61.5433V60.8644C25.4136 60.5413 25.228 60.2498 24.9394 60.1065C22.5965 58.9422 21 56.6263 21 53.9593Z" fill="url(#paint2_linear_14_23683)"/>
<path d="M68.64 23.9478C68.64 20.1107 65.3356 17 61.2585 17C57.1819 17 53.877 20.1107 53.877 23.9478C53.877 27.7853 57.1819 30.8961 61.2585 30.8961C61.4477 30.8961 61.6354 30.8892 61.821 30.8761C62.0628 30.8592 62.3004 30.952 62.4717 31.1243L63.2729 31.9276C63.6246 32.2802 64.2265 32.0309 64.2265 31.5317V30.8529C64.2265 30.5298 64.4125 30.2388 64.7006 30.0955C67.0435 28.9312 68.64 26.6153 68.64 23.9478Z" fill="url(#paint3_radial_14_23683)"/>
</g>
<path d="M42.2733 4.375H7.35664C3.29353 4.375 0 7.66853 0 11.7316V36.3923C0 40.0805 2.71515 43.1337 6.25595 43.6646C6.81831 43.7489 7.24022 44.2205 7.24022 44.7887V47.6064C7.24022 49.4078 9.41864 50.3098 10.6924 49.0361L13.4123 46.3161C15.0562 44.6723 17.2864 43.7484 19.6111 43.7484H42.2733C46.3359 43.7484 49.6294 40.4549 49.6294 36.3918V11.7311C49.6294 7.66853 46.3359 4.375 42.2733 4.375V4.375Z" fill="url(#paint4_linear_14_23683)"/>
<path d="M8.97656 15.5212C8.97656 14.969 9.42428 14.5212 9.97656 14.5212H39.6537C40.2059 14.5212 40.6537 14.969 40.6537 15.5212V16.3186C40.6537 16.8709 40.2059 17.3186 39.6537 17.3186H9.97656C9.42428 17.3186 8.97656 16.8709 8.97656 16.3186V15.5212Z" fill="url(#paint5_linear_14_23683)"/>
<path d="M9.33325 22.4666C9.33325 21.9143 9.78097 21.4666 10.3333 21.4666H40.0103C40.5626 21.4666 41.0103 21.9143 41.0103 22.4666V23.2639C41.0103 23.8162 40.5626 24.2639 40.0103 24.2639H10.3333C9.78097 24.2639 9.33325 23.8162 9.33325 23.2639V22.4666Z" fill="url(#paint6_linear_14_23683)"/>
<path d="M8.97656 29.3457C8.97656 28.7934 9.42428 28.3457 9.97656 28.3457H33.2006C33.7529 28.3457 34.2006 28.7934 34.2006 29.3457V30.1431C34.2006 30.6954 33.7529 31.1431 33.2006 31.1431H9.97656C9.42428 31.1431 8.97656 30.6954 8.97656 30.1431V29.3457Z" fill="url(#paint7_linear_14_23683)"/>
<defs>
<radialGradient id="paint0_radial_14_23683" cx="0" cy="0" r="1" gradientUnits="userSpaceOnUse" gradientTransform="translate(40.2995 35.7804) scale(8.72738)">
<stop stop-color="#FFC738"/>
<stop offset="0.4873" stop-color="#FFC636"/>
<stop offset="0.6746" stop-color="#FFC22F"/>
<stop offset="0.8103" stop-color="#FFBB23"/>
<stop offset="0.9203" stop-color="#FFB112"/>
<stop offset="1" stop-color="#FFA700"/>
</radialGradient>
<linearGradient id="paint1_linear_14_23683" x1="40.4454" y1="40.0086" x2="74.7026" y2="51.2662" gradientUnits="userSpaceOnUse">
<stop stop-color="#5B5EED"/>
<stop offset="1" stop-color="#8284FF"/>
</linearGradient>
<linearGradient id="paint2_linear_14_23683" x1="21" y1="48.0172" x2="36.2161" y2="48.7305" gradientUnits="userSpaceOnUse">
<stop offset="0.382417" stop-color="#3B414D"/>
<stop offset="1" stop-color="#546179"/>
</linearGradient>
<radialGradient id="paint3_radial_14_23683" cx="0" cy="0" r="1" gradientUnits="userSpaceOnUse" gradientTransform="translate(59.3149 20.2928) scale(12.8693 12.9034)">
<stop stop-color="#FFC738"/>
<stop offset="0.4873" stop-color="#FFC636"/>
<stop offset="0.6746" stop-color="#FFC22F"/>
<stop offset="0.8103" stop-color="#FFBB23"/>
<stop offset="0.9203" stop-color="#FFB112"/>
<stop offset="1" stop-color="#FFA700"/>
</radialGradient>
<linearGradient id="paint4_linear_14_23683" x1="8.58042" y1="8.30622" x2="39.1592" y2="68.3008" gradientUnits="userSpaceOnUse">
<stop stop-color="#FFFCF8"/>
<stop offset="0.1875" stop-color="#FAF8F6"/>
<stop offset="0.4041" stop-color="#ECEEF2"/>
<stop offset="0.6353" stop-color="#D5DCEA"/>
<stop offset="0.875" stop-color="#B5C4DF"/>
<stop offset="1" stop-color="#A1B5D8"/>
</linearGradient>
<linearGradient id="paint5_linear_14_23683" x1="8.86719" y1="15.4001" x2="41.0672" y2="16.8001" gradientUnits="userSpaceOnUse">
<stop stop-color="#A1B5D8"/>
<stop offset="1" stop-color="#A1B5D8" stop-opacity="0.4"/>
</linearGradient>
<linearGradient id="paint6_linear_14_23683" x1="9.22388" y1="22.3454" x2="41.4239" y2="23.7454" gradientUnits="userSpaceOnUse">
<stop stop-color="#A1B5D8"/>
<stop offset="1" stop-color="#A1B5D8" stop-opacity="0.4"/>
</linearGradient>
<linearGradient id="paint7_linear_14_23683" x1="8.88947" y1="29.2246" x2="34.5476" y2="30.1129" gradientUnits="userSpaceOnUse">
<stop stop-color="#A1B5D8"/>
<stop offset="1" stop-color="#A1B5D8" stop-opacity="0.4"/>
</linearGradient>
<clipPath id="clip0_14_23683">
<rect width="50" height="49" fill="white" transform="translate(21 17)"/>
</clipPath>
</defs>
</svg>
