<svg xmlns="http://www.w3.org/2000/svg" xmlns:xlink="http://www.w3.org/1999/xlink" width="70" height="70" fill="none" xmlns:v="https://vecta.io/nano"><g clip-path="url(#Q)"><path d="M9.808 23.024L41.511 56.25l17.616-44.127-49.32 10.901zm30.461 26.804L16.694 25.123l36.676-8.108-13.101 32.814z" fill="url(#A)"/><path d="M69.864 16.77c0 8.28-6.713 14.992-14.993 14.992S39.879 25.05 39.879 16.77 46.591 1.777 54.871 1.777 69.864 8.49 69.864 16.77z" fill="url(#B)"/><path d="M69.794 18.216c-.293 3.082-1.522 5.892-3.397 8.143-.741.889-1.583 1.692-2.509 2.388L53.537 18.395l-2.605-2.604c-1.154-1.063-1.877-2.587-1.877-4.279a5.82 5.82 0 0 1 5.816-5.816c1.692 0 3.217.724 4.28 1.878l10.643 10.643z" fill="url(#C)"/><use xlink:href="#R" fill="url(#D)"/><use xlink:href="#S" fill="url(#E)"/><path d="M63.026 24.824a11.42 11.42 0 0 1-16.31 0c.83-3.739 4.165-6.534 8.154-6.534 2.308 0 4.395.936 5.907 2.447 1.103 1.101 1.899 2.511 2.248 4.087z" fill="url(#F)"/><path d="M29.848 23.741c0 8.28-6.712 14.993-14.992 14.993S-.137 32.021-.137 23.741 6.576 8.749 14.856 8.749s14.992 6.713 14.992 14.993z" fill="url(#G)"/><path d="M29.777 25.187c-.292 3.082-1.521 5.893-3.397 8.143-.741.889-1.582 1.692-2.508 2.388L10.917 22.762c-1.154-1.063-1.877-2.587-1.877-4.279a5.82 5.82 0 0 1 5.816-5.816c1.692 0 3.217.724 4.279 1.877l10.643 10.643z" fill="url(#H)"/><path d="M26.38 33.33a14.96 14.96 0 0 1-2.508 2.388 14.91 14.91 0 0 1-9.017 3.016 14.27 14.27 0 0 1-1.259-.054l-6.895-6.885a8.36 8.36 0 0 1 6.82-6.428 8.48 8.48 0 0 1 1.335-.106c2.308 0 4.395.936 5.907 2.447l5.618 5.623z" fill="url(#I)"/><path d="M20.672 18.483a5.82 5.82 0 0 1-5.816 5.816 5.82 5.82 0 0 1-5.816-5.816 5.82 5.82 0 0 1 5.816-5.816 5.82 5.82 0 0 1 5.816 5.816z" fill="url(#J)"/><path d="M23.01 31.795c-2.076 2.105-4.963 3.409-8.154 3.409a11.42 11.42 0 0 1-8.155-3.409c.83-3.739 4.165-6.534 8.155-6.534a8.33 8.33 0 0 1 5.907 2.447 8.32 8.32 0 0 1 2.248 4.087z" fill="url(#K)"/><path d="M57.103 53.484c0 8.28-6.712 14.993-14.992 14.993s-14.993-6.713-14.993-14.993 6.712-14.992 14.993-14.992 14.992 6.712 14.992 14.992z" fill="url(#L)"/><path d="M57.033 54.93a14.9 14.9 0 0 1-3.398 8.143 14.98 14.98 0 0 1-2.508 2.388L38.172 52.506c-1.154-1.063-1.877-2.587-1.877-4.279a5.82 5.82 0 0 1 5.816-5.816c1.692 0 3.217.724 4.279 1.878L57.033 54.93z" fill="url(#M)"/><path d="M53.635 63.073c-.741.889-1.582 1.692-2.508 2.388a14.91 14.91 0 0 1-9.017 3.015 14.27 14.27 0 0 1-1.259-.054l-6.895-6.885a8.36 8.36 0 0 1 6.82-6.428 8.48 8.48 0 0 1 1.335-.106 8.33 8.33 0 0 1 5.907 2.447l5.618 5.623z" fill="url(#N)"/><path d="M47.927 48.226c0 3.212-2.604 5.816-5.816 5.816s-5.816-2.604-5.816-5.816a5.82 5.82 0 0 1 5.816-5.816 5.82 5.82 0 0 1 5.816 5.816z" fill="url(#O)"/><path d="M50.265 61.538a11.42 11.42 0 0 1-16.309 0c.83-3.739 4.165-6.535 8.154-6.535a8.33 8.33 0 0 1 5.907 2.447 8.32 8.32 0 0 1 2.248 4.088z" fill="url(#P)"/></g><defs><linearGradient id="A" x1="9.808" y1="15.065" x2="60.607" y2="17.786" xlink:href="#T"><stop offset=".382" stop-color="#3b414d"/><stop offset="1" stop-color="#546179"/></linearGradient><linearGradient id="B" x1="40.09" y1="6.988" x2="73.326" y2="18.154" xlink:href="#T"><stop stop-color="#696cf7"/><stop offset="1" stop-color="#8494ff"/></linearGradient><linearGradient id="C" x1="69.01" y1="25.65" x2="55.803" y2="12.443" xlink:href="#T"><stop stop-color="#3c54ee" stop-opacity="0"/><stop offset="1" stop-color="#3c54ee"/></linearGradient><linearGradient id="D" x1="65.653" y1="29.952" x2="58.759" y2="18.76" xlink:href="#T"><stop stop-color="#3c54ee" stop-opacity="0"/><stop offset="1" stop-color="#3c54ee"/></linearGradient><linearGradient id="E" x1="54.871" y1="8.83" x2="54.871" y2="18.922" xlink:href="#T"><stop stop-color="#fffcf8"/><stop offset=".188" stop-color="#faf8f6"/><stop offset=".404" stop-color="#eceef2"/><stop offset=".635" stop-color="#d5dcea"/><stop offset=".875" stop-color="#b5c4df"/><stop offset="1" stop-color="#a1b5d8"/></linearGradient><linearGradient id="F" x1="54.872" y1="20.969" x2="54.872" y2="29.595" xlink:href="#T"><stop stop-color="#fffcf8"/><stop offset=".188" stop-color="#faf8f6"/><stop offset=".404" stop-color="#eceef2"/><stop offset=".635" stop-color="#d5dcea"/><stop offset=".875" stop-color="#b5c4df"/><stop offset="1" stop-color="#a1b5d8"/></linearGradient><linearGradient id="G" x1="-.137" y1="8.749" x2="29.849" y2="38.733" xlink:href="#T"><stop stop-color="#4af799"/><stop offset="1" stop-color="#b8db62"/></linearGradient><linearGradient id="H" x1="14.572" y1="25.575" x2="29.905" y2="27.352" xlink:href="#T"><stop stop-color="#4fb87f"/><stop offset="1" stop-color="#96fbc4" stop-opacity="0"/></linearGradient><linearGradient id="I" x1="26.133" y1="33.133" x2="11.088" y2="24.855" xlink:href="#T"><stop stop-color="#96fbc4" stop-opacity="0"/><stop offset="1" stop-color="#4fb87f"/></linearGradient><linearGradient id="J" x1="14.856" y1="15.802" x2="14.856" y2="25.893" xlink:href="#T"><stop stop-color="#fffcf8"/><stop offset=".188" stop-color="#faf8f6"/><stop offset=".404" stop-color="#eceef2"/><stop offset=".635" stop-color="#d5dcea"/><stop offset=".875" stop-color="#b5c4df"/><stop offset="1" stop-color="#a1b5d8"/></linearGradient><linearGradient id="K" x1="14.856" y1="27.94" x2="14.856" y2="36.566" xlink:href="#T"><stop stop-color="#fffcf8"/><stop offset=".188" stop-color="#faf8f6"/><stop offset=".404" stop-color="#eceef2"/><stop offset=".635" stop-color="#d5dcea"/><stop offset=".875" stop-color="#b5c4df"/><stop offset="1" stop-color="#a1b5d8"/></linearGradient><linearGradient id="L" x1="27.118" y1="53.484" x2="57.103" y2="53.484" xlink:href="#T"><stop stop-color="#f6d365"/><stop offset="1" stop-color="#fda085"/></linearGradient><linearGradient id="M" x1="56.249" y1="62.364" x2="43.042" y2="49.158" xlink:href="#T"><stop stop-color="#ffa700" stop-opacity="0"/><stop offset=".021" stop-color="#fea600" stop-opacity=".02"/><stop offset=".635" stop-color="#ec8c00" stop-opacity=".635"/><stop offset="1" stop-color="#e58200"/></linearGradient><linearGradient id="N" x1="47.875" y1="70.973" x2="43.852" y2="62.425" xlink:href="#T"><stop stop-color="#ffa700" stop-opacity="0"/><stop offset=".021" stop-color="#fea600" stop-opacity=".02"/><stop offset=".635" stop-color="#ec8c00" stop-opacity=".635"/><stop offset="1" stop-color="#e58200"/></linearGradient><linearGradient id="O" x1="42.111" y1="45.545" x2="42.111" y2="55.637" xlink:href="#T"><stop stop-color="#fffcf8"/><stop offset=".188" stop-color="#faf8f6"/><stop offset=".404" stop-color="#eceef2"/><stop offset=".635" stop-color="#d5dcea"/><stop offset=".875" stop-color="#b5c4df"/><stop offset="1" stop-color="#a1b5d8"/></linearGradient><linearGradient id="P" x1="42.111" y1="57.683" x2="42.111" y2="66.309" xlink:href="#T"><stop stop-color="#fffcf8"/><stop offset=".188" stop-color="#faf8f6"/><stop offset=".404" stop-color="#eceef2"/><stop offset=".635" stop-color="#d5dcea"/><stop offset=".875" stop-color="#b5c4df"/><stop offset="1" stop-color="#a1b5d8"/></linearGradient><clipPath id="Q"><path fill="#fff" d="M0 0h70v70H0z"/></clipPath><path id="R" d="M66.396 26.359c-.741.889-1.582 1.692-2.508 2.388a14.91 14.91 0 0 1-9.017 3.015 14.27 14.27 0 0 1-1.259-.054l-6.895-6.885a8.36 8.36 0 0 1 6.82-6.428 8.48 8.48 0 0 1 1.335-.106 8.33 8.33 0 0 1 5.907 2.447l5.618 5.623z"/><path id="S" d="M60.688 11.512a5.82 5.82 0 0 1-5.816 5.816 5.82 5.82 0 0 1-5.816-5.816 5.82 5.82 0 0 1 5.816-5.816 5.82 5.82 0 0 1 5.816 5.816z"/><linearGradient id="T" gradientUnits="userSpaceOnUse"/></defs></svg>